<svg width="24" height="24" viewBox="0 0 24 24" fill="none" xmlns="http://www.w3.org/2000/svg">
<path d="M21.9994 16.9206V19.9206C22.0006 20.1991 21.9435 20.4748 21.832 20.73C21.7204 20.9851 21.5567 21.2142 21.3515 21.4025C21.1463 21.5908 20.904 21.7341 20.6402 21.8233C20.3764 21.9125 20.0968 21.9457 19.8194 21.9206C16.7423 21.5863 13.7864 20.5348 11.1894 18.8506C8.77327 17.3153 6.72478 15.2668 5.18945 12.8506C3.49942 10.2418 2.44769 7.27161 2.11944 4.18062C2.09446 3.90408 2.12732 3.62538 2.21595 3.36224C2.30457 3.0991 2.44702 2.8573 2.63421 2.65224C2.82141 2.44717 3.04925 2.28333 3.30324 2.17114C3.55722 2.05895 3.83179 2.00088 4.10945 2.00062H7.10945C7.59475 1.99584 8.06524 2.16769 8.43321 2.48415C8.80118 2.8006 9.04152 3.24006 9.10944 3.72062C9.23607 4.68068 9.47089 5.62334 9.80945 6.53062C9.94399 6.88854 9.97311 7.27753 9.89335 7.6515C9.8136 8.02546 9.62831 8.36873 9.35944 8.64062L8.08945 9.91062C9.513 12.4142 11.5859 14.4871 14.0894 15.9106L15.3594 14.6406C15.6313 14.3718 15.9746 14.1865 16.3486 14.1067C16.7225 14.027 17.1115 14.0561 17.4694 14.1906C18.3767 14.5292 19.3194 14.764 20.2794 14.8906C20.7652 14.9591 21.2088 15.2038 21.526 15.5781C21.8431 15.9524 22.0116 16.4302 21.9994 16.9206Z" stroke="white" stroke-width="1.33" stroke-linecap="round" stroke-linejoin="round"/>
</svg>
