<svg width="128" height="27" viewBox="0 0 128 27" fill="none" xmlns="http://www.w3.org/2000/svg">
<path d="M37.2156 20.1335C34.9857 20.1335 33.1401 19.3962 31.6795 17.9212C30.2187 16.4464 29.4883 14.6081 29.4883 12.4063C29.4883 10.2045 30.2187 8.36622 31.6795 6.89135C33.1401 5.41648 34.9857 4.67903 37.2156 4.67903C38.5565 4.67903 39.7983 4.99667 40.9415 5.63175C42.0847 6.26686 42.981 7.12068 43.6301 8.19345L40.3488 10.0776C40.0666 9.55539 39.6467 9.14248 39.0893 8.83903C38.5316 8.53568 37.907 8.38397 37.2156 8.38397C36.0299 8.38397 35.074 8.75441 34.347 9.49543C33.62 10.2363 33.2568 11.2066 33.2568 12.4063C33.2568 13.606 33.62 14.5762 34.347 15.3172C35.074 16.0582 36.0299 16.4287 37.2156 16.4287C37.907 16.4287 38.5316 16.2769 39.0893 15.9735C39.6467 15.67 40.0666 15.2502 40.3488 14.7139L43.6301 16.6192C42.981 17.706 42.0885 18.5634 40.9519 19.1915C39.816 19.8194 38.5704 20.1335 37.2156 20.1335ZM51.4845 8.93434C52.6277 8.93434 53.5628 9.32609 54.2898 10.1092C55.0165 10.8926 55.3797 12.0182 55.3797 13.4861V19.816H51.8656V13.9305C51.8656 13.3802 51.7209 12.9638 51.4315 12.6815C51.1421 12.3992 50.7575 12.2581 50.2779 12.2581C49.7272 12.2581 49.3003 12.424 48.997 12.7556C48.6934 13.0873 48.5417 13.5637 48.5417 14.1846V19.816H45.0274V4.99667H48.5417V10.2893C49.1767 9.38593 50.1578 8.93434 51.4845 8.93434ZM60.7995 11.1996C60.9972 10.508 61.3922 9.97177 61.9852 9.59061C62.5779 9.20957 63.2413 9.01905 63.9752 9.01905V12.9144C63.1706 12.7874 62.4402 12.9356 61.7841 13.359C61.1277 13.7824 60.7995 14.474 60.7995 15.4337V19.816H57.2852V9.23076H60.7995V11.1996ZM70.1782 20.1123C68.6116 20.1123 67.2777 19.5725 66.1767 18.4928C65.0758 17.4131 64.5254 16.09 64.5254 14.5234C64.5254 12.9568 65.0758 11.6336 66.1767 10.5539C67.2777 9.47424 68.6116 8.93434 70.1782 8.93434C71.7586 8.93434 73.096 9.47424 74.19 10.5539C75.2837 11.6336 75.8307 12.9568 75.8307 14.5234C75.8307 16.09 75.2837 17.4131 74.19 18.4928C73.096 19.5725 71.7586 20.1123 70.1782 20.1123ZM70.1782 16.7251C70.7989 16.7251 71.3106 16.5204 71.7129 16.1112C72.1152 15.7018 72.3163 15.1726 72.3163 14.5234C72.3163 13.8741 72.1152 13.3448 71.7129 12.9356C71.3106 12.5263 70.7989 12.3216 70.1782 12.3216C69.5713 12.3216 69.0665 12.5263 68.6642 12.9356C68.2623 13.3448 68.0608 13.8741 68.0608 14.5234C68.0608 15.1726 68.2623 15.7018 68.6642 16.1112C69.0665 16.5204 69.5713 16.7251 70.1782 16.7251ZM89.5279 8.93434C90.7559 8.93434 91.726 9.32609 92.4388 10.1092C93.1516 10.8926 93.5079 11.9687 93.5079 13.3378V19.816H89.9725V13.74C89.9725 12.7521 89.5349 12.2581 88.66 12.2581C88.1801 12.2581 87.8166 12.417 87.5695 12.7345C87.3226 13.0519 87.199 13.4861 87.199 14.0364V19.816H83.6847V13.74C83.6847 12.7521 83.2402 12.2581 82.3511 12.2581C81.8713 12.2581 81.5077 12.417 81.2606 12.7345C81.0137 13.0519 80.8901 13.4861 80.8901 14.0364V19.816H77.3761V9.23076H80.8901V10.2257C81.5396 9.36487 82.492 8.93434 83.7484 8.93434C84.9622 8.93434 85.8654 9.38593 86.4581 10.2893C87.1921 9.38593 88.2151 8.93434 89.5279 8.93434ZM98.5254 15.8147C98.8782 16.6757 99.6686 17.1061 100.896 17.1061C101.659 17.1061 102.301 16.8591 102.823 16.3652L105.363 18.1436C104.319 19.4561 102.802 20.1123 100.812 20.1123C99.0195 20.1123 97.5831 19.5867 96.5036 18.5352C95.4238 17.4837 94.8841 16.1535 94.8841 14.5446C94.8841 12.9496 95.4134 11.6159 96.4718 10.5433C97.5301 9.47068 98.8782 8.93434 100.515 8.93434C102.096 8.93434 103.402 9.46352 104.432 10.5221C105.462 11.5806 105.977 12.9074 105.977 14.5022C105.977 14.968 105.928 15.4055 105.829 15.8147H98.5254ZM98.4829 13.3802H102.548C102.266 12.3922 101.602 11.8983 100.558 11.8983C99.4709 11.8983 98.7792 12.3922 98.4829 13.3802ZM111.587 16.5558H115.546V19.816H106.888V17.4026L110.635 12.491H107.099V9.23076H115.335V11.6442L111.587 16.5558ZM124.014 9.23076H127.91L124.29 19.6466C123.725 21.2415 122.928 22.3917 121.897 23.0974C120.867 23.8031 119.534 24.1207 117.896 24.0501V20.7475C118.644 20.7475 119.209 20.6558 119.59 20.4723C119.971 20.2889 120.282 19.9571 120.521 19.4773L116.287 9.23076H120.225L122.363 15.3702L124.014 9.23076Z" fill="white"/>
<path fill-rule="evenodd" clip-rule="evenodd" d="M7.28473 10.3141L15.4139 10.3386C16.9066 10.6705 15.8703 12.3753 15.5754 12.9923C15.2581 13.6559 14.4619 15.1324 14.3006 15.7476C14.7553 16.6337 17.1474 19.8735 17.7062 20.946L18.9624 18.3242C19.3951 17.4198 19.8036 16.5157 20.2327 15.6148C21.1625 13.6624 22.1217 11.9202 21.2905 9.36684C20.6817 7.49627 19.2047 6.04231 17.36 5.42299C15.6643 4.85364 11.7488 5.13284 9.68842 5.09441L3.94238 5.10772C4.20024 5.6677 6.90801 9.53913 7.28473 10.3141Z" fill="#4380FF"/>
<path fill-rule="evenodd" clip-rule="evenodd" d="M11.8476 20.9361L17.7063 20.9457C17.1476 19.8732 14.7555 16.6334 14.3008 15.7473C13.123 15.7849 6.84931 15.9005 6.12554 15.7163C5.64561 15.5941 5.24414 15.0684 5.37454 14.4776C5.45459 14.1142 6.97343 11.0839 7.28489 10.3138C6.90817 9.53883 4.20041 5.6674 3.94255 5.10742L1.41876 10.4378C0.532802 12.4016 -0.532961 14.0439 0.346471 16.6758C0.969992 18.5415 2.37233 19.9877 4.27062 20.6284C5.90262 21.1791 9.87566 20.8942 11.8476 20.9361Z" fill="#11DEFF"/>
<path fill-rule="evenodd" clip-rule="evenodd" d="M17.7064 20.946L11.8477 20.9364C12.0235 21.3137 15.1155 25.932 15.3089 26.0885L17.7064 20.946Z" fill="#4373FF"/>
<path fill-rule="evenodd" clip-rule="evenodd" d="M3.94238 5.10742L9.68842 5.09412C9.54569 4.77232 9.10677 4.15839 8.87896 3.82049L6.33018 0.0546989C6.10111 0.32145 4.14557 4.55349 3.94238 5.10742Z" fill="#07E9FF"/>
</svg>
