<svg width="32" height="32" viewBox="0 0 32 32" fill="none" xmlns="http://www.w3.org/2000/svg">
<path d="M24.0004 24.0002C24.5308 24.0002 25.0395 23.7895 25.4146 23.4144C25.7896 23.0393 26.0004 22.5306 26.0004 22.0002V17.1162C26.0004 16.5857 25.7896 16.077 25.4146 15.702C25.0395 15.3269 24.5308 15.1162 24.0004 15.1162H21.2244C21.2244 14.4135 21.2657 13.7109 21.3484 13.0082C21.4724 12.2642 21.679 11.6028 21.9684 11.0242C22.2577 10.4455 22.6304 9.99018 23.0864 9.65818C23.5397 9.28618 24.1184 9.10018 24.8224 9.10018V6.00018C23.665 6.00018 22.6517 6.24818 21.7824 6.74418C20.919 7.23393 20.1773 7.91209 19.6124 8.72818C19.0436 9.62648 18.6248 10.6114 18.3724 11.6442C18.1171 12.7837 17.9923 13.9485 18.0004 15.1162V22.0002C18.0004 22.5306 18.2111 23.0393 18.5862 23.4144C18.9612 23.7895 19.4699 24.0002 20.0004 24.0002H24.0004ZM12.0004 24.0002C12.5308 24.0002 13.0395 23.7895 13.4146 23.4144C13.7897 23.0393 14.0004 22.5306 14.0004 22.0002V17.1162C14.0004 16.5857 13.7897 16.077 13.4146 15.702C13.0395 15.3269 12.5308 15.1162 12.0004 15.1162H9.22436C9.22436 14.4135 9.2657 13.7109 9.34836 13.0082C9.4737 12.2642 9.68037 11.6028 9.96836 11.0242C10.2577 10.4455 10.6304 9.99018 11.0864 9.65818C11.5397 9.28618 12.1184 9.10018 12.8224 9.10018V6.00018C11.665 6.00018 10.6517 6.24818 9.78236 6.74418C8.91905 7.23393 8.17731 7.91209 7.61236 8.72818C7.04359 9.62648 6.62478 10.6114 6.37236 11.6442C6.11713 12.7837 5.99233 13.9485 6.00036 15.1162V22.0002C6.00036 22.5306 6.21108 23.0393 6.58615 23.4144C6.96122 23.7895 7.46993 24.0002 8.00036 24.0002H12.0004Z" fill="#0AB7A8"/>
</svg>
