<svg width="63" height="24" viewBox="0 0 63 24" fill="none" xmlns="http://www.w3.org/2000/svg">
<g clip-path="url(#clip0_2014_11408)">
<path d="M0.691014 23.8061L12.1347 12.0757C12.17 12.0408 12.1919 11.9946 12.1965 11.9452C12.2012 11.8958 12.1884 11.8463 12.1603 11.8054C11.4644 10.8337 10.1803 10.6654 9.70448 10.0125C8.29485 8.07863 7.93718 6.98406 7.33142 7.0519C7.28918 7.05802 7.25024 7.07847 7.22134 7.10994L3.08746 11.3478C0.709381 13.7838 0.367504 19.153 0.305667 23.6494C0.305436 23.6941 0.318616 23.7379 0.343506 23.7751C0.368397 23.8123 0.403858 23.8412 0.44532 23.8581C0.486782 23.8749 0.532344 23.879 0.576134 23.8697C0.619925 23.8605 0.659937 23.8383 0.691014 23.8061Z" fill="#017CEE"/>
<path d="M24.112 23.5166L12.3817 12.0721C12.3467 12.0367 12.3004 12.0147 12.2509 12.01C12.2014 12.0054 12.1518 12.0183 12.1108 12.0465C11.1393 12.7427 10.9708 14.0265 10.3179 14.5023C8.38419 15.9119 7.28975 16.2696 7.35746 16.8754C7.36358 16.9175 7.38415 16.9562 7.4155 16.985L11.6532 21.1188C14.0892 23.4972 19.4585 23.839 23.9549 23.9008C23.9994 23.9007 24.0429 23.8875 24.0799 23.8627C24.1168 23.8379 24.1456 23.8026 24.1624 23.7614C24.1793 23.7202 24.1835 23.6749 24.1745 23.6314C24.1655 23.5878 24.1438 23.5478 24.112 23.5166Z" fill="#00AD46"/>
<path d="M11.6532 21.1201C10.3216 19.8209 9.70442 17.2509 12.2566 11.9514C8.10768 13.8057 6.65384 16.2428 7.36882 16.9408L11.6532 21.1201Z" fill="#04D659"/>
<path d="M23.8218 0.0964171L12.3785 11.8268C12.3431 11.8616 12.3211 11.9078 12.3164 11.9573C12.3117 12.0067 12.3246 12.0563 12.3528 12.0972C13.0491 13.0688 14.3325 13.2372 14.8087 13.8901C16.2184 15.8239 16.5764 16.9185 17.1818 16.8506C17.2241 16.8446 17.263 16.8241 17.2918 16.7926L21.4256 12.5547C23.804 10.1187 24.1458 4.74948 24.2075 0.253152C24.2076 0.208424 24.1943 0.164695 24.1694 0.127571C24.1444 0.0904469 24.109 0.0616183 24.0675 0.0447801C24.0261 0.0279419 23.9806 0.0238612 23.9368 0.033061C23.893 0.0422608 23.853 0.064322 23.8218 0.0964171Z" fill="#00C7D4"/>
<path d="M21.4278 12.5549C20.1286 13.8864 17.5586 14.5035 12.2588 11.9514C14.1129 16.1004 16.5501 17.5542 17.248 16.8392L21.4278 12.5549Z" fill="#11E1EE"/>
<path d="M0.400917 0.385903L12.1313 11.8293C12.1662 11.8646 12.2124 11.8865 12.2619 11.8912C12.3113 11.8959 12.3608 11.8831 12.4018 11.855C13.3733 11.1586 13.5418 9.87484 14.1945 9.39901C16.1284 7.98937 17.223 7.6317 17.1551 7.02594C17.149 6.98368 17.1285 6.94481 17.0971 6.91586L12.8592 2.78199C10.4232 0.403903 5.05398 0.0620251 0.557652 0.000188392C0.512815 -0.000119526 0.468916 0.0130309 0.431633 0.0379392C0.394349 0.0628475 0.365396 0.0983681 0.348516 0.139908C0.331636 0.181448 0.327607 0.227096 0.336949 0.270951C0.34629 0.314805 0.368574 0.354848 0.400917 0.385903Z" fill="#E43921"/>
<path d="M12.8611 2.78247C14.1928 4.08165 14.8099 6.65161 12.2578 11.9515C16.4066 10.0973 17.8605 7.65961 17.1456 6.96214L12.8611 2.78247Z" fill="#FF7557"/>
<path d="M3.08789 11.3481C4.38707 10.0165 6.95703 9.39937 12.2569 11.9515C10.4026 7.80264 7.96552 6.3488 7.26756 7.06366L3.08789 11.3481Z" fill="#0CB6FF"/>
<path d="M12.2577 12.4611C12.5402 12.4611 12.7693 12.232 12.7693 11.9495C12.7693 11.6669 12.5402 11.4379 12.2577 11.4379C11.9751 11.4379 11.7461 11.6669 11.7461 11.9495C11.7461 12.232 11.9751 12.4611 12.2577 12.4611Z" fill="#4A4848"/>
<path d="M27.3955 7.79688C27.3717 7.79626 27.349 7.78653 27.3322 7.7697C27.3153 7.75286 27.3055 7.7302 27.3049 7.70639C27.3041 7.68961 27.3056 7.6728 27.3094 7.65643L28.4324 4.72757C28.4417 4.69701 28.4611 4.67052 28.4875 4.65246C28.5138 4.63439 28.5455 4.62581 28.5774 4.62814H28.8851C28.9506 4.62349 29.0107 4.66488 29.0301 4.72757L30.148 7.65655L30.1571 7.70639C30.1566 7.73026 30.1469 7.75302 30.13 7.76991C30.1131 7.78679 30.0904 7.7965 30.0665 7.797H29.8359C29.8083 7.79872 29.781 7.79065 29.7588 7.77422C29.7428 7.759 29.7304 7.74038 29.7226 7.71973L29.4738 7.07712H27.989L27.7402 7.71973C27.7318 7.74122 27.7177 7.76004 27.6995 7.77422C27.6789 7.79007 27.6533 7.7981 27.6273 7.79688H27.3955ZM29.3422 6.68774L28.7312 5.08084L28.1202 6.68774H29.3422ZM30.691 8.65671C30.6767 8.65693 30.6625 8.65423 30.6493 8.6488C30.6361 8.64337 30.6242 8.63532 30.6142 8.62512C30.605 8.61555 30.5979 8.60421 30.5932 8.59179C30.5885 8.57937 30.5864 8.56613 30.587 8.55288V5.54847C30.5864 5.53522 30.5885 5.52198 30.5932 5.50956C30.5979 5.49714 30.605 5.4858 30.6142 5.47623C30.6242 5.46603 30.6361 5.45798 30.6493 5.45254C30.6625 5.44711 30.6767 5.44442 30.691 5.44463H30.8991C30.9556 5.44708 31.0008 5.49214 31.0032 5.54847V5.74745C31.0881 5.63219 31.2004 5.53995 31.33 5.47911C31.4596 5.41828 31.6023 5.39077 31.7453 5.39908C31.8789 5.38929 32.013 5.41126 32.1366 5.46318C32.2601 5.51511 32.3696 5.59552 32.4562 5.69786C32.6243 5.91985 32.715 6.19083 32.7144 6.46929C32.7174 6.50235 32.7188 6.55365 32.7188 6.6232C32.7188 6.69276 32.7174 6.74402 32.7144 6.777C32.7141 7.05532 32.6235 7.32601 32.4562 7.54843C32.3693 7.65029 32.2597 7.73037 32.1363 7.78226C32.0128 7.83414 31.879 7.85638 31.7454 7.8472C31.6049 7.8538 31.4649 7.8264 31.3372 7.76733C31.2096 7.70826 31.0981 7.61926 31.0122 7.5079V8.55814C31.0127 8.57141 31.0106 8.58465 31.0059 8.59707C31.0012 8.60949 30.9941 8.62083 30.9848 8.63039C30.9759 8.64083 30.9648 8.64911 30.9522 8.6546C30.9396 8.6601 30.9259 8.66266 30.9122 8.6621L30.691 8.65671ZM31.6507 7.47533C31.7389 7.48307 31.8276 7.46893 31.909 7.43415C31.9904 7.39938 32.0619 7.34505 32.1173 7.27598C32.2237 7.12167 32.2803 6.93849 32.2796 6.75104C32.2826 6.721 32.284 6.67733 32.284 6.62002C32.284 6.04965 32.0726 5.76447 31.6499 5.76447C31.5605 5.75861 31.471 5.7745 31.389 5.81077C31.3071 5.84704 31.2352 5.90262 31.1794 5.97276C31.075 6.11417 31.0166 6.28426 31.0122 6.45998L31.0073 6.63214L31.0122 6.80872C31.0152 6.97918 31.0758 7.1436 31.1842 7.27525C31.2411 7.34243 31.3128 7.39548 31.3937 7.4302C31.4746 7.46492 31.5625 7.48037 31.6504 7.47533H31.6507ZM33.9356 7.84071C33.7932 7.84206 33.6523 7.81112 33.5236 7.75022C33.4036 7.69579 33.2993 7.61198 33.2203 7.50655C33.1489 7.40436 33.1109 7.28258 33.1115 7.15794C33.1102 7.06314 33.1316 6.9694 33.174 6.8846C33.2164 6.7998 33.2786 6.72641 33.3552 6.67059C33.5524 6.52887 33.7834 6.44154 34.025 6.41737L34.6993 6.32235V6.19121C34.6993 5.88345 34.5234 5.72957 34.1716 5.72957C34.0571 5.72485 33.9438 5.75486 33.8467 5.81565C33.7683 5.86397 33.7031 5.93094 33.6568 6.01059C33.6506 6.03326 33.638 6.05366 33.6206 6.06937C33.6132 6.07592 33.6046 6.08092 33.5952 6.08408C33.5859 6.08724 33.576 6.08848 33.5662 6.08774H33.3714C33.3581 6.08864 33.3447 6.08669 33.3322 6.082C33.3197 6.07732 33.3084 6.07002 33.299 6.06059C33.2895 6.05115 33.2822 6.03981 33.2776 6.02733C33.2729 6.01484 33.2709 6.00149 33.2718 5.98818C33.2815 5.89924 33.316 5.81481 33.3714 5.74451C33.4508 5.64049 33.555 5.55802 33.6746 5.50463C33.8315 5.43072 34.0038 5.39513 34.1772 5.4008C34.309 5.38796 34.442 5.40266 34.5678 5.44398C34.6936 5.4853 34.8095 5.55232 34.908 5.6408C35.0568 5.79998 35.1367 6.01157 35.1301 6.22941V7.69635C35.1304 7.71068 35.1278 7.72492 35.1223 7.73817C35.1168 7.75142 35.1087 7.76341 35.0984 7.77337C35.0888 7.78256 35.0775 7.7897 35.0651 7.79438C35.0526 7.79905 35.0394 7.80115 35.0262 7.80055H34.818C34.8039 7.80209 34.7897 7.80047 34.7764 7.79579C34.763 7.79112 34.7509 7.78352 34.7409 7.77355C34.7309 7.76358 34.7232 7.75149 34.7185 7.73817C34.7138 7.72486 34.7121 7.71065 34.7135 7.69659V7.50214C34.6383 7.60584 34.5388 7.68951 34.4237 7.74582C34.2711 7.8169 34.1034 7.84988 33.9353 7.84194L33.9356 7.84071ZM34.0306 7.50141C34.1195 7.50465 34.208 7.4894 34.2906 7.45662C34.3733 7.42385 34.4482 7.37426 34.5106 7.311C34.5775 7.23536 34.6287 7.14722 34.6613 7.05168C34.6939 6.95614 34.7072 6.85508 34.7006 6.75435V6.62761L34.1756 6.70476C34.0049 6.72051 33.8397 6.77302 33.6912 6.85867C33.6428 6.88471 33.6022 6.92321 33.5737 6.97018C33.5451 7.01715 33.5297 7.0709 33.5288 7.12586C33.527 7.18159 33.5398 7.23682 33.5661 7.28603C33.5923 7.33524 33.631 7.3767 33.6782 7.40627C33.7838 7.47166 33.9061 7.50513 34.0303 7.50263L34.0306 7.50141ZM36.7277 7.84071C36.5892 7.84852 36.4506 7.82851 36.32 7.78186C36.1894 7.73521 36.0695 7.66288 35.9673 7.56912C35.7754 7.35862 35.6716 7.08249 35.6773 6.79769L35.6729 6.61671L35.6773 6.43561C35.6715 6.15264 35.7754 5.8784 35.9673 5.67031C36.0688 5.57527 36.1885 5.50181 36.3192 5.45435C36.4499 5.40689 36.5889 5.38642 36.7277 5.39418C36.9186 5.38849 37.108 5.42889 37.2799 5.51198C37.4154 5.57709 37.531 5.67714 37.6148 5.80182C37.6856 5.90357 37.7276 6.02247 37.7366 6.14614C37.7384 6.1595 37.7369 6.1731 37.7321 6.18572C37.7274 6.19834 37.7196 6.20957 37.7094 6.21839C37.6879 6.23669 37.6604 6.24638 37.6322 6.24557H37.415C37.3909 6.24732 37.3668 6.2409 37.3468 6.22733C37.3263 6.20711 37.3109 6.18236 37.3017 6.15508C37.2656 6.03121 37.1891 5.92294 37.0845 5.84737C36.9791 5.78067 36.856 5.74754 36.7314 5.75235C36.6487 5.74868 36.5662 5.76252 36.4892 5.79295C36.4123 5.82337 36.3426 5.86971 36.2848 5.92892C36.164 6.07768 36.1012 6.26518 36.1081 6.45667L36.1037 6.61916L36.1081 6.77296C36.1003 6.96661 36.1631 7.1565 36.2848 7.30733C36.343 7.36574 36.4128 7.41126 36.4898 7.44092C36.5667 7.47058 36.649 7.48372 36.7314 7.47949C36.8554 7.48414 36.9781 7.45266 37.0845 7.38888C37.1886 7.3108 37.2647 7.20133 37.3017 7.07663C37.3111 7.04943 37.3265 7.02472 37.3468 7.00439C37.3561 6.99628 37.3669 6.9901 37.3786 6.98621C37.3903 6.98232 37.4027 6.9808 37.415 6.98174H37.6322C37.6466 6.98147 37.6608 6.98414 37.6741 6.98957C37.6873 6.995 37.6993 7.00309 37.7094 7.01333C37.7196 7.02215 37.7274 7.03338 37.7321 7.04599C37.7369 7.05861 37.7384 7.07222 37.7366 7.08557C37.7266 7.20887 37.6847 7.32743 37.6148 7.42953C37.5309 7.55422 37.4153 7.65427 37.2798 7.71937C37.1085 7.80489 36.9188 7.84698 36.7273 7.84194L36.7277 7.84071ZM38.3833 7.79541C38.3693 7.79693 38.3551 7.79529 38.3417 7.7906C38.3284 7.78591 38.3163 7.7783 38.3063 7.76832C38.2963 7.75833 38.2886 7.74624 38.2839 7.73291C38.2792 7.71959 38.2775 7.70538 38.279 7.69133V4.68704C38.2784 4.67379 38.2805 4.66055 38.2852 4.64813C38.2899 4.63571 38.297 4.62437 38.3062 4.6148C38.3162 4.60451 38.3282 4.59639 38.3415 4.59091C38.3547 4.58544 38.369 4.58273 38.3833 4.58296H38.6095C38.6368 4.58399 38.6627 4.59528 38.682 4.61457C38.7014 4.63386 38.7127 4.65975 38.7138 4.68704V5.74255C38.7957 5.63572 38.901 5.54906 39.0215 5.48921C39.1587 5.42455 39.3093 5.39349 39.4609 5.39859C39.5872 5.3915 39.7134 5.41306 39.8302 5.46167C39.947 5.51027 40.0512 5.58465 40.1352 5.67925C40.3059 5.88617 40.3928 6.14952 40.3789 6.41737V7.69365C40.3792 7.70801 40.3765 7.72228 40.371 7.73556C40.3656 7.74883 40.3574 7.76083 40.347 7.7708C40.3375 7.77998 40.3261 7.78713 40.3137 7.7918C40.3013 7.79648 40.2881 7.79858 40.2748 7.79798H40.0488C40.0347 7.79944 40.0206 7.79776 40.0073 7.79305C39.994 7.78834 39.982 7.78073 39.972 7.77077C39.9621 7.76081 39.9544 7.74875 39.9497 7.73547C39.945 7.72219 39.9433 7.70803 39.9448 7.69402V6.43806C39.956 6.25808 39.8996 6.0804 39.7865 5.93994C39.7297 5.8794 39.6602 5.83216 39.583 5.80161C39.5058 5.77107 39.4228 5.75796 39.3399 5.76325C39.2552 5.75944 39.1707 5.77362 39.0919 5.80486C39.0131 5.83609 38.9418 5.88368 38.8827 5.94447C38.7647 6.08075 38.7047 6.25776 38.7154 6.43769V7.6912C38.7158 7.70555 38.7131 7.7198 38.7077 7.73308C38.7022 7.74635 38.6941 7.75836 38.6838 7.76835C38.6743 7.77753 38.6629 7.78468 38.6505 7.78936C38.6381 7.79403 38.6248 7.79613 38.6116 7.79553L38.3833 7.79541ZM41.9748 7.84071C41.8374 7.84716 41.7002 7.82526 41.5717 7.77639C41.4432 7.72752 41.3262 7.65271 41.2278 7.55663C41.0341 7.33981 40.9262 7.05968 40.9245 6.76892L40.92 6.61512L40.9245 6.46574C40.9303 6.17762 41.0395 5.90118 41.2322 5.68696C41.4403 5.49569 41.7142 5.3922 41.9968 5.39811C42.2794 5.40402 42.5487 5.51887 42.7486 5.71867C42.9434 5.96166 43.0417 6.26795 43.0246 6.57888V6.65602C43.0249 6.6703 43.0223 6.68449 43.0168 6.6977C43.0114 6.7109 43.0033 6.72285 42.993 6.7328C42.9835 6.74198 42.9721 6.74913 42.9597 6.7538C42.9473 6.75848 42.9341 6.76058 42.9208 6.75998H41.3544V6.80063C41.3584 6.98269 41.4202 7.15874 41.531 7.30329C41.5834 7.36881 41.6504 7.42125 41.7265 7.45646C41.8027 7.49168 41.886 7.5087 41.9699 7.50618C42.0884 7.51126 42.2059 7.48315 42.3093 7.425C42.3866 7.37974 42.4544 7.31975 42.5086 7.24843C42.5243 7.22394 42.5443 7.20251 42.5675 7.18512C42.5917 7.17428 42.6182 7.16965 42.6447 7.17165H42.8668C42.8913 7.17092 42.9154 7.179 42.9345 7.19443C42.9529 7.2101 42.963 7.23361 42.9617 7.25774C42.9491 7.35016 42.9043 7.43517 42.8351 7.49774C42.7373 7.60265 42.6185 7.6857 42.4864 7.74141C42.3249 7.81089 42.1505 7.84516 41.9748 7.84194V7.84071ZM42.5947 6.44663V6.43316C42.6029 6.24854 42.5415 6.06757 42.4226 5.9261C42.365 5.86331 42.2951 5.81316 42.2172 5.77885C42.1392 5.74455 42.055 5.72683 41.9699 5.72683C41.8847 5.72683 41.8005 5.74455 41.7226 5.77885C41.6446 5.81316 41.5747 5.86331 41.5172 5.9261C41.404 6.07019 41.3464 6.25014 41.3548 6.43316V6.44663H42.5947Z" fill="white"/>
<path d="M29.341 6.68774V6.72264C29.3466 6.72261 29.3521 6.72123 29.3571 6.71862C29.362 6.716 29.3663 6.71223 29.3695 6.70761C29.3727 6.703 29.3747 6.69768 29.3754 6.69211C29.3761 6.68654 29.3755 6.68088 29.3735 6.67562L29.341 6.68774ZM28.7299 5.08084L28.7625 5.0686C28.7599 5.06209 28.7555 5.05651 28.7497 5.05258C28.7439 5.04864 28.7371 5.04654 28.7301 5.04654C28.7231 5.04654 28.7162 5.04864 28.7105 5.05258C28.7047 5.05651 28.7002 5.06209 28.6976 5.0686L28.7299 5.08084ZM28.1189 6.68774L28.0865 6.6755C28.0845 6.68076 28.0838 6.68642 28.0845 6.69199C28.0852 6.69757 28.0872 6.7029 28.0904 6.70753C28.0936 6.71216 28.0979 6.71595 28.1028 6.71858C28.1078 6.72121 28.1133 6.7226 28.1189 6.72264V6.68774ZM27.3946 7.76199C27.3871 7.76232 27.3795 7.76097 27.3725 7.75802C27.3655 7.75508 27.3592 7.75062 27.3541 7.74497L27.3045 7.79407C27.316 7.8059 27.3297 7.8153 27.3448 7.82171C27.3599 7.82813 27.3762 7.83143 27.3927 7.83141L27.3946 7.76199ZM27.3541 7.74497C27.3485 7.73983 27.344 7.73354 27.3411 7.72652C27.3381 7.7195 27.3367 7.71192 27.337 7.70431H27.2677C27.2676 7.72076 27.2709 7.73705 27.2774 7.7522C27.2838 7.76734 27.2932 7.78104 27.305 7.79248L27.3541 7.74497ZM27.337 7.70431C27.3362 7.69073 27.3372 7.67711 27.3399 7.66378L27.2738 7.64174C27.2686 7.66174 27.2664 7.68207 27.2672 7.70272L27.337 7.70431ZM27.3391 7.66697L28.4617 4.73811L28.3968 4.71337L27.2742 7.64235L27.3391 7.66697ZM28.462 4.73737C28.4691 4.71423 28.4834 4.69392 28.5027 4.67933C28.5238 4.66604 28.5484 4.6595 28.5733 4.6606V4.5908C28.5344 4.58961 28.4959 4.60038 28.4633 4.62166C28.4316 4.64436 28.4081 4.67652 28.3959 4.7135L28.462 4.73737ZM28.5741 4.6606H28.8818V4.5908H28.5741V4.6606ZM28.8818 4.6606C28.9068 4.65943 28.9316 4.66597 28.9528 4.67933C28.9721 4.69392 28.9863 4.71423 28.9935 4.73737L29.0588 4.71337C29.0467 4.6764 29.0231 4.64424 28.9915 4.62154C28.9587 4.60022 28.9201 4.5895 28.8811 4.5908L28.8818 4.6606ZM28.9943 4.73774L30.1124 7.6666L30.1773 7.64186L29.0593 4.71288L28.9943 4.73774ZM30.1108 7.66096L30.1197 7.7108L30.1883 7.69831L30.1794 7.64835L30.1108 7.66096ZM30.1194 7.70431C30.1196 7.71192 30.1182 7.7195 30.1153 7.72652C30.1123 7.73354 30.1079 7.73983 30.1022 7.74497L30.1513 7.79407C30.1632 7.78263 30.1726 7.76893 30.179 7.75379C30.1854 7.73864 30.1887 7.72235 30.1887 7.7059L30.1194 7.70431ZM30.1022 7.74497C30.0971 7.75058 30.0908 7.75501 30.0838 7.75797C30.0769 7.76093 30.0693 7.76234 30.0617 7.76211V7.83141C30.0949 7.83141 30.1267 7.81794 30.1499 7.79407L30.1022 7.74497ZM30.0617 7.76211H29.831V7.83141H30.0617V7.76211ZM29.831 7.76211C29.8116 7.76376 29.7922 7.75856 29.7763 7.74741L29.7316 7.80105C29.7601 7.82272 29.7953 7.83362 29.831 7.83178V7.76211ZM29.7787 7.74937C29.7664 7.73817 29.7568 7.72431 29.7506 7.70884L29.6849 7.73076C29.6942 7.75648 29.7095 7.77974 29.7296 7.7986L29.7787 7.74937ZM29.7503 7.70884L29.5014 7.06574L29.4365 7.09084L29.6853 7.7337L29.7503 7.70884ZM29.4689 7.04382H27.9842V7.11325H29.4689V7.04382ZM27.9518 7.06611L27.7025 7.70921L27.7674 7.73443L28.0163 7.0917L27.9518 7.06611ZM27.702 7.71043C27.6956 7.72642 27.6851 7.74044 27.6716 7.75109L27.7167 7.80374C27.7397 7.78562 27.7573 7.7615 27.7677 7.73394L27.702 7.71043ZM27.672 7.75109C27.6576 7.76196 27.6397 7.76715 27.6217 7.76566V7.83509C27.6559 7.83631 27.6894 7.82541 27.7162 7.80423L27.672 7.75109ZM27.6217 7.76566H27.3906V7.83509H27.6217V7.76566ZM29.3699 6.6788L28.7588 5.0719L28.6939 5.09664L29.305 6.70354L29.3699 6.6788ZM28.6935 5.0719L28.0824 6.6788L28.1473 6.70354L28.7584 5.09664L28.6935 5.0719ZM28.1149 6.72631H29.3369V6.65688H28.1149V6.72631ZM30.9983 5.7499H30.9634C30.9634 5.75725 30.9657 5.76441 30.97 5.77037C30.9743 5.77632 30.9804 5.78077 30.9874 5.78308C30.9943 5.78538 31.0019 5.78543 31.0089 5.78321C31.0159 5.78099 31.022 5.77662 31.0264 5.77072L30.9983 5.7499ZM31.0073 7.50986L31.0348 7.4888C31.0304 7.48308 31.0242 7.47889 31.0173 7.4768C31.0104 7.47471 31.003 7.47484 30.9961 7.47715C30.9892 7.47947 30.9833 7.48386 30.979 7.48972C30.9748 7.49558 30.9724 7.50262 30.9724 7.50986H31.0073ZM30.6848 8.62758C30.6751 8.62785 30.6654 8.62607 30.6564 8.62236C30.6473 8.61865 30.6392 8.61308 30.6324 8.60603L30.5835 8.65525C30.6103 8.68207 30.6469 8.69676 30.6848 8.69578V8.62758ZM30.6324 8.60603C30.6265 8.59966 30.6219 8.59213 30.619 8.58392C30.616 8.5757 30.6148 8.56697 30.6154 8.55827H30.5456C30.5443 8.59427 30.5579 8.62929 30.583 8.65525L30.6324 8.60603ZM30.6154 8.55827V5.55374H30.5456V8.55827H30.6154ZM30.6154 5.55374C30.6148 5.54499 30.616 5.53633 30.619 5.52807C30.6219 5.51981 30.6266 5.51225 30.6326 5.50586L30.5833 5.45688C30.5708 5.46965 30.5611 5.48483 30.5546 5.50151C30.5482 5.51819 30.5453 5.53601 30.546 5.55386L30.6154 5.55374ZM30.6326 5.50586C30.6393 5.49884 30.6474 5.49331 30.6564 5.48962C30.6654 5.48593 30.6751 5.48416 30.6848 5.48443V5.41464C30.6469 5.41366 30.6102 5.42835 30.5833 5.45505L30.6326 5.50586ZM30.6848 5.48443H30.8931V5.41464H30.6848V5.48443ZM30.8931 5.48443C30.9018 5.48384 30.9104 5.48529 30.9184 5.48868C30.9264 5.49206 30.9335 5.49728 30.9391 5.5039L30.9917 5.45884C30.9796 5.44458 30.9644 5.43324 30.9472 5.42565C30.9301 5.41806 30.9115 5.41443 30.8928 5.41501L30.8931 5.48443ZM30.9431 5.50794C30.9566 5.51933 30.9637 5.53635 30.9627 5.55386H31.032C31.0325 5.53518 31.0289 5.51661 31.0213 5.49953C31.0137 5.48245 31.0024 5.46729 30.9882 5.45517L30.9431 5.50794ZM30.9627 5.55386V5.75272H31.032V5.55386H30.9627ZM31.0255 5.77341C31.1072 5.66258 31.2154 5.57395 31.3401 5.51561C31.4648 5.45726 31.6022 5.43106 31.7396 5.43937V5.36994C31.591 5.36141 31.4426 5.39014 31.3079 5.45352C31.1731 5.5169 31.0564 5.61293 30.9682 5.73288L31.0255 5.77341ZM31.7396 5.43937C31.8679 5.4294 31.9966 5.44994 32.1154 5.49932C32.2341 5.5487 32.3395 5.62551 32.4229 5.72345L32.4777 5.68047C32.388 5.57406 32.2743 5.49035 32.146 5.43618C32.0178 5.382 31.8785 5.35889 31.7396 5.36872V5.43937ZM32.4229 5.72345C32.586 5.93907 32.674 6.20221 32.6734 6.4726L32.7428 6.46978C32.743 6.18447 32.6498 5.90696 32.4774 5.67962L32.4229 5.72345ZM32.6734 6.47456C32.6762 6.50627 32.6779 6.55574 32.6779 6.62566H32.7474C32.7474 6.55623 32.7474 6.50382 32.7425 6.46856L32.6734 6.47456ZM32.6779 6.62566C32.6779 6.69509 32.6779 6.74505 32.6734 6.77664L32.7425 6.78276C32.7457 6.74786 32.7474 6.69509 32.7474 6.62566H32.6779ZM32.6734 6.77823C32.6732 7.0486 32.5853 7.31161 32.4229 7.52774L32.4774 7.57084C32.6488 7.34314 32.7419 7.06607 32.7428 6.78105L32.6734 6.77823ZM32.4229 7.52737C32.3391 7.62486 32.2337 7.70135 32.115 7.75069C31.9964 7.80002 31.8678 7.82084 31.7396 7.81145V7.88101C31.8784 7.88998 32.0173 7.86647 32.1454 7.81233C32.2735 7.75818 32.3871 7.67491 32.4774 7.56913L32.4229 7.52737ZM31.7396 7.81145C31.6045 7.81819 31.4697 7.79219 31.3468 7.73565C31.2239 7.67911 31.1164 7.59371 31.0336 7.48672L30.9785 7.52737C31.0676 7.64303 31.1832 7.73551 31.3157 7.79698C31.4481 7.85846 31.5934 7.88711 31.7393 7.88052L31.7396 7.81145ZM30.9715 7.50705V8.55741H31.0413V7.50705H30.9715ZM30.9715 8.55741C30.9721 8.56612 30.9708 8.57486 30.9679 8.58307C30.9649 8.59129 30.9603 8.59881 30.9544 8.60517L31.0036 8.65439C31.0288 8.62856 31.0423 8.59341 31.0409 8.55741H30.9715ZM30.9528 8.60725C30.9471 8.61386 30.94 8.61907 30.932 8.62247C30.924 8.62587 30.9153 8.62736 30.9066 8.62684V8.69664C30.9446 8.69786 30.9809 8.6817 31.0057 8.6528L30.9528 8.60725ZM30.9066 8.62684H30.685V8.69664H30.9066V8.62684ZM31.6442 7.51476C31.7379 7.52252 31.8319 7.50709 31.9182 7.46984C32.0044 7.4326 32.0801 7.37468 32.1387 7.30121L32.0827 7.26056C32.0306 7.32508 31.9633 7.37571 31.8869 7.40795C31.8104 7.44019 31.7272 7.45303 31.6446 7.44533L31.6442 7.51476ZM32.1383 7.3017C32.2492 7.14177 32.3086 6.95178 32.3085 6.75717L32.239 6.75435C32.2396 6.93494 32.1851 7.11143 32.0827 7.26019L32.1383 7.3017ZM32.308 6.75925C32.3113 6.72709 32.3129 6.68215 32.3129 6.62443H32.2431C32.2431 6.68125 32.2431 6.72386 32.2386 6.75227L32.308 6.75925ZM32.3129 6.62443C32.329 6.39167 32.2712 6.15978 32.1476 5.96186C32.0889 5.88546 32.0122 5.82468 31.9244 5.78488C31.8366 5.74507 31.7404 5.72747 31.6442 5.73362V5.80305C31.8171 5.7908 31.9846 5.86586 32.0908 6.00288C32.2053 6.18888 32.2585 6.4062 32.2426 6.62407L32.3129 6.62443ZM31.6442 5.73411C31.5494 5.72814 31.4545 5.74521 31.3677 5.78386C31.2808 5.82252 31.2047 5.88162 31.1456 5.95611L31.2008 5.99676C31.2534 5.9309 31.3212 5.87879 31.3984 5.84492C31.4756 5.81105 31.5598 5.79643 31.6439 5.80231L31.6442 5.73411ZM31.1456 5.95611C31.0367 6.10363 30.9758 6.28108 30.9711 6.46439L31.0409 6.4677C31.0452 6.29811 31.1019 6.134 31.2033 5.99798L31.1456 5.95611ZM30.9711 6.46525L30.9666 6.63741H31.036L31.0406 6.46525H30.9711ZM30.9666 6.63913L30.9711 6.81558H31.0409L31.0365 6.63901L30.9666 6.63913ZM30.9711 6.81607C30.9746 6.99407 31.038 7.16571 31.151 7.30329L31.2049 7.25896C31.102 7.13267 31.0447 6.9753 31.0425 6.81239L30.9711 6.81607ZM31.151 7.30329C31.2112 7.37427 31.287 7.43034 31.3726 7.4671C31.4581 7.50385 31.5509 7.52029 31.6439 7.51513V7.4457C31.5612 7.45085 31.4785 7.43669 31.4022 7.40434C31.326 7.37199 31.2583 7.32235 31.2045 7.25933L31.151 7.30329ZM34.703 7.50533H34.7379C34.7377 7.49802 34.7352 7.49094 34.7308 7.48512C34.7264 7.47929 34.7202 7.475 34.7132 7.47286C34.7062 7.47072 34.6987 7.47084 34.6918 7.4732C34.6849 7.47555 34.6789 7.48002 34.6746 7.48599L34.703 7.50533ZM34.6937 6.63533H34.7286C34.7286 6.63026 34.7275 6.62526 34.7254 6.62066C34.7232 6.61606 34.7201 6.61198 34.7162 6.60871C34.7124 6.60543 34.7078 6.60304 34.703 6.6017C34.6981 6.60035 34.6929 6.60009 34.6879 6.60092L34.6937 6.63533ZM33.9288 7.81354C33.7915 7.81489 33.6557 7.78504 33.5317 7.72623L33.5017 7.78917C33.6351 7.85223 33.7808 7.88431 33.9284 7.88297L33.9288 7.81354ZM33.5317 7.72623C33.4169 7.67377 33.3171 7.59336 33.2415 7.49235L33.1854 7.53301C33.2677 7.64334 33.3765 7.73118 33.5017 7.78843L33.5317 7.72623ZM33.2422 7.49358C33.1748 7.39726 33.1389 7.28238 33.1395 7.1648H33.0697C33.069 7.29646 33.1091 7.4251 33.1845 7.53301L33.2422 7.49358ZM33.1395 7.1648C33.138 7.075 33.1583 6.98618 33.1985 6.90588C33.2387 6.82558 33.2977 6.75617 33.3705 6.70354L33.3279 6.6488C33.2467 6.70792 33.1809 6.78568 33.136 6.87554C33.0911 6.96541 33.0685 7.06474 33.07 7.16517L33.1395 7.1648ZM33.3705 6.70317C33.5628 6.56501 33.7881 6.47999 34.0238 6.45668L34.014 6.38774C33.7662 6.41259 33.5294 6.50249 33.3275 6.64831L33.3705 6.70317ZM34.0238 6.45668L34.6981 6.36178L34.6883 6.29272L34.0136 6.38774L34.0238 6.45668ZM34.7282 6.32725V6.19611H34.6588V6.32713L34.7282 6.32725ZM34.7282 6.19611C34.7331 6.12727 34.7226 6.05822 34.6977 5.99387C34.6728 5.92953 34.6339 5.87148 34.584 5.82386C34.4636 5.73306 34.3143 5.68891 34.1639 5.69958V5.76937C34.2974 5.75869 34.4304 5.79661 34.5382 5.87615C34.5809 5.91717 34.6139 5.96714 34.635 6.02246C34.656 6.07779 34.6645 6.13709 34.6599 6.19611H34.7282ZM34.1639 5.69958C34.0421 5.69472 33.9216 5.72682 33.8184 5.79166L33.8588 5.84933C33.9505 5.79191 34.0574 5.7636 34.1655 5.76815L34.1639 5.69958ZM33.8192 5.79141C33.7353 5.84236 33.6655 5.9135 33.6162 5.99835L33.677 6.03252C33.7207 5.95795 33.7821 5.89529 33.8558 5.85007L33.8192 5.79141ZM33.6162 6.00411C33.6118 6.02035 33.6031 6.03509 33.5909 6.04672L33.6344 6.10109C33.6571 6.08113 33.6736 6.05505 33.6819 6.02603L33.6162 6.00411ZM33.5886 6.04941C33.5801 6.05582 33.5695 6.05863 33.559 6.05725V6.12668C33.5733 6.12744 33.5877 6.12531 33.6012 6.12043C33.6147 6.11555 33.6271 6.10802 33.6377 6.09827L33.5886 6.04941ZM33.559 6.05725H33.364V6.12668H33.559V6.05725ZM33.364 6.05725C33.3457 6.05739 33.3281 6.05071 33.3144 6.03852L33.2691 6.09129C33.2953 6.11431 33.3291 6.1268 33.364 6.12668V6.05725ZM33.3181 6.04219C33.3057 6.02851 33.299 6.01068 33.2991 5.99223H33.2297C33.2295 6.02725 33.2419 6.06105 33.265 6.08725L33.3181 6.04219ZM33.2991 5.99394C33.3086 5.91135 33.3409 5.83302 33.3924 5.76778L33.3356 5.72713C33.2761 5.80301 33.2393 5.89428 33.2297 5.99027L33.2991 5.99394ZM33.3924 5.76815C33.4685 5.66871 33.5682 5.58997 33.6826 5.53917L33.6523 5.47672C33.5275 5.53265 33.4186 5.6189 33.3356 5.72762L33.3924 5.76815ZM33.6831 5.53917C33.8353 5.46758 34.0023 5.43321 34.1704 5.43888V5.36945C33.9914 5.36375 33.8137 5.40077 33.6519 5.47745L33.6831 5.53917ZM34.1704 5.43888C34.297 5.42632 34.4249 5.44015 34.5459 5.4795C34.667 5.51885 34.7785 5.58286 34.8736 5.6675L34.9246 5.62035C34.8231 5.52859 34.7037 5.4589 34.5738 5.41571C34.444 5.37252 34.3066 5.35677 34.1704 5.36945V5.43888ZM34.8739 5.66786C35.0167 5.82059 35.093 6.02367 35.0863 6.2326H35.1557C35.1623 6.00598 35.0791 5.78593 34.9243 5.62035L34.8739 5.66786ZM35.0863 6.2326V7.69954H35.1557V6.2326H35.0863ZM35.0863 7.69954C35.0865 7.70927 35.0847 7.71895 35.081 7.72796C35.0773 7.73696 35.0718 7.74509 35.0647 7.75182L35.1138 7.80105C35.1271 7.78772 35.1375 7.77185 35.1445 7.75438C35.1515 7.73692 35.1549 7.71822 35.1545 7.69941L35.0863 7.69954ZM35.0647 7.75182C35.0584 7.75782 35.0508 7.76243 35.0426 7.76538C35.0343 7.76833 35.0256 7.76955 35.0168 7.76897V7.83839C35.053 7.83962 35.0879 7.82615 35.1138 7.80105L35.0647 7.75182ZM35.0168 7.76897H34.8086V7.83839H35.0167L35.0168 7.76897ZM34.8086 7.76897C34.7888 7.7696 34.7694 7.76293 34.7542 7.75023L34.7091 7.80301C34.7368 7.82664 34.7722 7.83937 34.8086 7.83876V7.76897ZM34.7582 7.7539C34.7452 7.73886 34.7384 7.71943 34.7391 7.69954H34.6697C34.669 7.7359 34.6815 7.77129 34.7051 7.79896L34.7582 7.7539ZM34.7391 7.69954V7.50497H34.6697V7.69954H34.7391ZM34.6758 7.48513C34.6039 7.58452 34.5087 7.66467 34.3985 7.71852L34.4306 7.78023C34.5507 7.72109 34.6545 7.63343 34.733 7.52492L34.6758 7.48513ZM34.3985 7.71852C34.2524 7.78768 34.0918 7.82057 33.9304 7.81439V7.88382C34.1031 7.88994 34.2748 7.85441 34.4309 7.78023L34.3985 7.71852ZM34.0254 7.54439C34.1189 7.54774 34.212 7.53163 34.299 7.49711C34.3859 7.46258 34.4648 7.41039 34.5305 7.34382L34.4805 7.29509C34.4213 7.35499 34.3502 7.4019 34.2719 7.43281C34.1935 7.46371 34.1096 7.47795 34.0254 7.4746V7.54439ZM34.5305 7.34382C34.6004 7.26493 34.6541 7.17298 34.6884 7.07326C34.7226 6.97354 34.7369 6.86803 34.7302 6.7628H34.6608C34.6674 6.85909 34.6548 6.95573 34.6239 7.04715C34.593 7.13857 34.5442 7.22296 34.4805 7.29545L34.5305 7.34382ZM34.7302 6.7628V6.63619H34.6608V6.7628H34.7302ZM34.6897 6.60043L34.1646 6.67721L34.1748 6.74627L34.6997 6.6695L34.6897 6.60043ZM34.1646 6.67721C33.9888 6.69365 33.8188 6.74809 33.6661 6.83676L33.7047 6.8948C33.8489 6.81203 34.0093 6.76149 34.1749 6.74664L34.1646 6.67721ZM33.6665 6.83639C33.613 6.86546 33.5683 6.90823 33.5368 6.9603C33.5054 7.01238 33.4883 7.07189 33.4875 7.13272H33.5573C33.5582 7.08353 33.5723 7.03549 33.5981 6.99363C33.624 6.95177 33.6606 6.91764 33.7042 6.8948L33.6665 6.83639ZM33.4875 7.13272C33.4856 7.19417 33.4998 7.25504 33.5287 7.3093C33.5576 7.36355 33.6002 7.40931 33.6523 7.44203L33.6908 7.38448C33.6483 7.35804 33.6135 7.32084 33.59 7.27662C33.5665 7.23241 33.555 7.18277 33.5569 7.13272H33.4875ZM33.6531 7.44288C33.7648 7.51146 33.894 7.54635 34.025 7.54329V7.47374C33.9073 7.47678 33.7912 7.44561 33.6908 7.38399L33.6531 7.44288ZM36.7224 7.80656C36.5884 7.81445 36.4542 7.79538 36.3277 7.7505C36.2012 7.70562 36.085 7.63583 35.9859 7.54525L35.9372 7.59472C36.0425 7.69177 36.1663 7.7667 36.3011 7.8151C36.4359 7.86349 36.579 7.88436 36.7221 7.87648L36.7224 7.80656ZM35.9864 7.54562C35.8011 7.34169 35.701 7.07452 35.7066 6.79905L35.6372 6.8015C35.6322 7.09423 35.7394 7.37779 35.9368 7.59399L35.9864 7.54562ZM35.7066 6.79941L35.7022 6.61831H35.6328L35.6372 6.79941H35.7066ZM35.7022 6.6199L35.7066 6.43892H35.6372L35.6328 6.6199H35.7022ZM35.7066 6.43929C35.7004 6.16515 35.8007 5.89928 35.9864 5.6975L35.9368 5.64839C35.7388 5.86263 35.6314 6.14519 35.6372 6.43684L35.7066 6.43929ZM35.9864 5.6975C36.0846 5.6056 36.2005 5.53464 36.327 5.48894C36.4535 5.44324 36.588 5.42375 36.7223 5.43166V5.36223C36.5789 5.3544 36.4354 5.37573 36.3004 5.42491C36.1655 5.47409 36.0419 5.55012 35.9372 5.64839L35.9864 5.6975ZM36.7223 5.43166C36.9076 5.42583 37.0915 5.46481 37.2584 5.54529L37.2904 5.48358C37.1135 5.39772 36.9186 5.35591 36.7221 5.36174L36.7223 5.43166ZM37.2584 5.54529C37.3883 5.60741 37.4993 5.70312 37.5798 5.82252L37.6387 5.78566C37.5516 5.65569 37.4314 5.55138 37.2904 5.48358L37.2584 5.54529ZM37.5803 5.82337C37.6474 5.91937 37.6876 6.03154 37.6968 6.14823L37.7662 6.14456C37.7567 6.01483 37.7126 5.89003 37.6384 5.78321L37.5803 5.82337ZM37.6968 6.15178C37.6979 6.15927 37.6971 6.16691 37.6945 6.17401C37.6919 6.18111 37.6875 6.18744 37.6818 6.19243L37.7273 6.24521C37.7421 6.23298 37.7537 6.21717 37.7608 6.19927C37.7679 6.18136 37.7703 6.16195 37.7679 6.14284L37.6968 6.15178ZM37.6818 6.19243C37.6666 6.20516 37.6472 6.21183 37.6273 6.21117V6.28048C37.6639 6.28121 37.6995 6.26848 37.7273 6.24484L37.6818 6.19243ZM37.6273 6.21117H37.4102V6.28048H37.6273V6.21117ZM37.4102 6.21117C37.3941 6.21284 37.3778 6.20909 37.3639 6.20052L37.3205 6.25501C37.3466 6.27362 37.3782 6.2828 37.4102 6.28096V6.21117ZM37.3639 6.20052C37.3482 6.1838 37.3363 6.16388 37.3289 6.14211L37.2649 6.16892C37.2763 6.20162 37.2953 6.23113 37.3205 6.25501L37.3639 6.20052ZM37.3298 6.1437C37.2909 6.01274 37.2094 5.89848 37.0984 5.81896L37.0606 5.87737C37.1587 5.9488 37.2302 6.05093 37.2637 6.16758L37.3298 6.1437ZM37.0992 5.81896C36.9881 5.74821 36.8581 5.71293 36.7265 5.71782V5.78725C36.8441 5.7825 36.9605 5.81349 37.0602 5.87615L37.0992 5.81896ZM36.7265 5.71782C36.6388 5.71408 36.5514 5.72885 36.4698 5.76118C36.3882 5.7935 36.3144 5.84265 36.2531 5.90541L36.3034 5.95329C36.3582 5.89731 36.4242 5.8536 36.4972 5.82504C36.5701 5.79648 36.6483 5.78373 36.7265 5.78762V5.71782ZM36.2531 5.90541C36.1261 6.06081 36.06 6.2571 36.0671 6.45766L36.1365 6.45999C36.1289 6.27633 36.1882 6.09617 36.3034 5.95292L36.2531 5.90541ZM36.0671 6.4579L36.0627 6.62039H36.1321L36.1365 6.4579H36.0671ZM36.0627 6.62284L36.0671 6.77664L36.1365 6.77468L36.1321 6.62076L36.0627 6.62284ZM36.0671 6.77713C36.0595 6.97906 36.1256 7.17686 36.2531 7.33366L36.3034 7.28578C36.1878 7.14102 36.1285 6.95929 36.1365 6.77419L36.0671 6.77713ZM36.2531 7.33366C36.3147 7.39576 36.3887 7.44417 36.4703 7.47573C36.5518 7.5073 36.6391 7.52131 36.7265 7.51684V7.44705C36.6485 7.45135 36.5705 7.43909 36.4976 7.41109C36.4246 7.38308 36.3585 7.33996 36.3034 7.28456L36.2531 7.33366ZM36.7265 7.51684C36.8572 7.52154 36.9864 7.4881 37.0984 7.4206L37.0606 7.36207C36.9598 7.42217 36.8437 7.45165 36.7265 7.44692V7.51684ZM37.0992 7.42011C37.2095 7.33785 37.2903 7.22227 37.3298 7.09048L37.264 7.06733C37.2297 7.1849 37.1585 7.28835 37.061 7.36243L37.0992 7.42011ZM37.3289 7.09256C37.3363 7.07076 37.3482 7.0508 37.3639 7.03403L37.3205 6.97966C37.2954 7.00369 37.2763 7.03331 37.2649 7.06611L37.3289 7.09256ZM37.3668 7.03133C37.3728 7.02644 37.3798 7.02279 37.3872 7.02061C37.3947 7.01842 37.4025 7.01774 37.4102 7.0186V6.94917C37.3934 6.94819 37.3765 6.95059 37.3606 6.95625C37.3447 6.96191 37.3301 6.9707 37.3177 6.98211L37.3668 7.03133ZM37.4102 7.0186H37.6273V6.94917H37.4102V7.0186ZM37.6273 7.0186C37.6371 7.01833 37.6468 7.0201 37.6558 7.02382C37.6649 7.02753 37.673 7.03309 37.6797 7.04015L37.7288 6.99105C37.7155 6.97779 37.6997 6.96735 37.6822 6.96037C37.6648 6.95338 37.6461 6.94999 37.6273 6.95039V7.0186ZM37.6818 7.04186C37.6875 7.04683 37.6918 7.05312 37.6944 7.06018C37.697 7.06723 37.6978 7.07483 37.6968 7.08227L37.7658 7.08925C37.7682 7.07016 37.7658 7.05077 37.7587 7.03289C37.7516 7.01501 37.74 6.99923 37.7252 6.98701L37.6818 7.04186ZM37.6968 7.08594C37.6871 7.2034 37.6468 7.31626 37.5798 7.41325L37.6384 7.4506C37.7116 7.34346 37.7557 7.21909 37.7662 7.08974L37.6968 7.08594ZM37.5798 7.41325C37.4993 7.53269 37.3883 7.62845 37.2584 7.6906L37.2904 7.75231C37.4313 7.68445 37.5516 7.58016 37.6387 7.45023L37.5798 7.41325ZM37.2579 7.69096C37.0912 7.77187 36.9073 7.81088 36.7221 7.8046V7.87403C36.9186 7.88063 37.1138 7.83883 37.2904 7.75231L37.2579 7.69096ZM38.7082 5.73852H38.6737C38.6737 5.74571 38.676 5.75271 38.6802 5.75855C38.6844 5.76439 38.6903 5.76879 38.6971 5.77115C38.7039 5.77351 38.7113 5.77371 38.7182 5.77173C38.7251 5.76974 38.7312 5.76567 38.7357 5.76007L38.7082 5.73852ZM38.3781 7.76039C38.3583 7.76103 38.3389 7.75436 38.3237 7.74166L38.2782 7.79443C38.3058 7.81819 38.3412 7.83092 38.3777 7.83019L38.3781 7.76039ZM38.3277 7.74533C38.315 7.73012 38.3084 7.71077 38.309 7.69096H38.2392C38.2385 7.72733 38.251 7.76272 38.2746 7.79039L38.3277 7.74533ZM38.309 7.69096V4.68656H38.2392V7.69096H38.309ZM38.309 4.68656C38.3084 4.67785 38.3097 4.66911 38.3126 4.6609C38.3156 4.65268 38.3202 4.64516 38.3262 4.6388L38.2769 4.58958C38.2645 4.60238 38.2547 4.61758 38.2483 4.63424C38.2419 4.65091 38.2389 4.66871 38.2396 4.68656H38.309ZM38.3262 4.6388C38.3329 4.63174 38.341 4.62616 38.35 4.62243C38.359 4.61869 38.3687 4.61689 38.3784 4.61713V4.5477C38.3597 4.54729 38.341 4.55069 38.3235 4.55767C38.3061 4.56466 38.2902 4.57509 38.2769 4.58835L38.3262 4.6388ZM38.3784 4.61713H38.6046V4.5477H38.3784V4.61713ZM38.6046 4.61713C38.6133 4.61655 38.6219 4.61802 38.6299 4.62142C38.6379 4.62483 38.6449 4.63007 38.6505 4.63672L38.7032 4.59117C38.691 4.57691 38.6758 4.56557 38.6587 4.55798C38.6416 4.55039 38.623 4.54675 38.6042 4.54733L38.6046 4.61713ZM38.6542 4.64039C38.6608 4.64596 38.666 4.65301 38.6694 4.66097C38.6728 4.66892 38.6742 4.67756 38.6737 4.68619H38.7435C38.744 4.66751 38.7403 4.64894 38.7328 4.63186C38.7252 4.61478 38.7138 4.59962 38.6996 4.5875L38.6542 4.64039ZM38.6737 4.68619V5.7417H38.7435V4.68619H38.6737ZM38.7357 5.76252C38.8143 5.65973 38.9154 5.57636 39.0313 5.51884L39.0008 5.45639C38.8754 5.51851 38.7659 5.60868 38.6809 5.7199L38.7357 5.76252ZM39.0321 5.51884C39.1643 5.45657 39.3095 5.42676 39.4556 5.4319V5.3626C39.2986 5.35753 39.1426 5.38985 39.0005 5.45688L39.0321 5.51884ZM39.4556 5.4319C39.5771 5.42457 39.6988 5.44492 39.8113 5.49141C39.9238 5.53791 40.0243 5.60933 40.1052 5.70031L40.1579 5.65501C40.0706 5.55661 39.9622 5.47919 39.8408 5.4285C39.7194 5.3778 39.5882 5.35515 39.4568 5.36223L39.4556 5.4319ZM40.1052 5.70129C40.2705 5.90169 40.3546 6.15675 40.3411 6.41615H40.4105C40.4241 6.13976 40.3337 5.8683 40.1571 5.65525L40.1052 5.70129ZM40.3411 6.41615V7.69243H40.4105V6.41615H40.3411ZM40.3411 7.69243C40.3413 7.70219 40.3395 7.71202 40.3358 7.72105C40.3321 7.73007 40.3266 7.73822 40.3195 7.74497L40.3687 7.79407C40.3954 7.76713 40.41 7.73052 40.4093 7.69256L40.3411 7.69243ZM40.3195 7.74497C40.3131 7.75094 40.3056 7.75555 40.2974 7.7585C40.2892 7.76145 40.2805 7.76268 40.2717 7.76211V7.83141C40.3077 7.83264 40.3428 7.81917 40.3687 7.79407L40.3195 7.74497ZM40.2717 7.76211H40.0455V7.83141H40.2716L40.2717 7.76211ZM40.0455 7.76211C40.0257 7.76274 40.0063 7.75607 39.9911 7.74337L39.9457 7.79603C39.9733 7.81978 40.0087 7.83252 40.0451 7.83178L40.0455 7.76211ZM39.9953 7.74705C39.9825 7.7318 39.9759 7.7124 39.9765 7.69256H39.9067C39.906 7.72893 39.9185 7.76432 39.942 7.79211L39.9953 7.74705ZM39.9765 7.69256V6.4377H39.9067V7.69121L39.9765 7.69256ZM39.9765 6.43892C39.988 6.25031 39.9283 6.06424 39.8093 5.91754L39.7572 5.96382C39.8647 6.09774 39.918 6.26711 39.9066 6.43843L39.9765 6.43892ZM39.8096 5.91803C39.7493 5.8535 39.6755 5.80313 39.5935 5.77055C39.5114 5.73796 39.4231 5.72397 39.335 5.72958V5.79901C39.4131 5.79345 39.4915 5.80536 39.5645 5.83386C39.6375 5.86237 39.7032 5.90676 39.7568 5.96382L39.8096 5.91803ZM39.335 5.72958C39.2456 5.72591 39.1565 5.74111 39.0734 5.77419C38.9903 5.80727 38.9151 5.85749 38.8527 5.92158L38.903 5.96958C38.959 5.91239 39.0264 5.86766 39.1008 5.83833C39.1753 5.809 39.2551 5.79572 39.335 5.79937V5.72958ZM38.8527 5.92158C38.7281 6.06426 38.6645 6.25018 38.6756 6.43929H38.7454C38.7345 6.26818 38.7912 6.09963 38.9034 5.96994L38.8527 5.92158ZM38.6756 6.43929V7.69305H38.7454V6.4377L38.6756 6.43929ZM38.6756 7.69305C38.6759 7.70277 38.6741 7.71245 38.6704 7.72146C38.6667 7.73046 38.6612 7.73859 38.6542 7.74533L38.7032 7.79443C38.7164 7.78114 38.7268 7.7653 38.7338 7.74788C38.7408 7.73046 38.7442 7.71181 38.7438 7.69305H38.6756ZM38.6542 7.74533C38.6478 7.75134 38.6402 7.75597 38.632 7.75892C38.6237 7.76187 38.6149 7.76308 38.6062 7.76248V7.83178C38.6423 7.83301 38.6773 7.81954 38.7033 7.79443L38.6542 7.74533ZM38.6062 7.76248H38.3802V7.83178H38.6062V7.76248ZM41.9704 7.80754C41.8375 7.81382 41.7048 7.79266 41.5805 7.74536C41.4563 7.69806 41.3431 7.62565 41.248 7.53264L41.1986 7.58137C41.3 7.68093 41.4208 7.75854 41.5535 7.8094C41.6862 7.86025 41.828 7.88325 41.97 7.87697L41.9704 7.80754ZM41.2484 7.53301C41.0605 7.32204 40.956 7.04981 40.9545 6.76733L40.8851 6.77101C40.8874 7.07005 40.9987 7.35798 41.1981 7.58088L41.2484 7.53301ZM40.9549 6.76819L40.9505 6.61427H40.8811L40.8855 6.76819H40.9549ZM40.9505 6.61635L40.9549 6.46696L40.8851 6.46488L40.8807 6.61427L40.9505 6.61635ZM40.9549 6.46819C40.9602 6.18825 41.0662 5.91959 41.2533 5.71133L41.2031 5.66345C41.0048 5.88354 40.8921 6.16749 40.8855 6.46366L40.9549 6.46819ZM41.2529 5.71133C41.3458 5.61776 41.4572 5.54461 41.5799 5.49658C41.7027 5.44854 41.8341 5.42668 41.9658 5.43239V5.36296C41.8248 5.35733 41.6841 5.38113 41.5527 5.43287C41.4214 5.4846 41.3024 5.56313 41.2031 5.66345L41.2529 5.71133ZM41.9658 5.43239C42.1064 5.4241 42.2471 5.44761 42.3773 5.50118C42.5076 5.55475 42.6241 5.63701 42.7182 5.74182L42.7709 5.69627C42.6703 5.58387 42.5457 5.49555 42.4064 5.43786C42.267 5.38016 42.1164 5.35456 41.9658 5.36296V5.43239ZM42.7185 5.74182C42.9077 5.9784 43.0029 6.27644 42.9861 6.57888H43.0559C43.0732 6.25961 42.972 5.94519 42.7718 5.6959L42.7185 5.74182ZM42.9861 6.57888V6.65603H43.0559V6.57888H42.9861ZM42.9861 6.65603C42.9864 6.66577 42.9846 6.67547 42.9809 6.6845C42.9772 6.69353 42.9717 6.70168 42.9646 6.70843L43.0136 6.75754C43.0406 6.7306 43.0551 6.69399 43.0543 6.65603H42.9861ZM42.9646 6.70843C42.9583 6.71444 42.9507 6.71907 42.9424 6.72202C42.9342 6.72497 42.9254 6.72618 42.9166 6.72558V6.79488C42.9528 6.79611 42.9878 6.78264 43.0137 6.75754L42.9646 6.70843ZM42.9166 6.72558H41.3504V6.79488H42.9166V6.72558ZM41.3155 6.76048V6.80101H41.3853V6.76048H41.3155ZM41.3155 6.80101C41.3199 6.99025 41.3843 7.1732 41.4994 7.3235L41.5542 7.28052C41.4479 7.14168 41.3886 6.97261 41.3849 6.79782L41.3155 6.80101ZM41.4998 7.32386C41.5554 7.39359 41.6264 7.44944 41.7073 7.48701C41.7882 7.52458 41.8767 7.54284 41.9658 7.54035V7.47092C41.887 7.47335 41.8088 7.45737 41.7373 7.42425C41.6657 7.39113 41.6029 7.34179 41.5538 7.28015L41.4998 7.32386ZM41.9658 7.54035C42.091 7.5455 42.2151 7.51538 42.324 7.45341L42.2874 7.39415C42.1896 7.44913 42.0784 7.4756 41.9663 7.47056L41.9658 7.54035ZM42.324 7.45341C42.4051 7.40566 42.4761 7.34252 42.533 7.26754L42.4762 7.22688C42.4245 7.29427 42.3602 7.35106 42.287 7.39415L42.324 7.45341ZM42.5322 7.26827C42.5424 7.25423 42.5535 7.24072 42.5652 7.22774C42.5685 7.22415 42.572 7.22076 42.5756 7.21758L42.5789 7.21513L42.5476 7.15305C42.5349 7.16034 42.5236 7.16965 42.5139 7.1806C42.5007 7.19529 42.4883 7.21062 42.4766 7.22652L42.5322 7.26827ZM42.5809 7.2139C42.5997 7.20656 42.6201 7.20374 42.6402 7.20533V7.13603C42.6074 7.13393 42.5747 7.14034 42.5453 7.15464L42.5809 7.2139ZM42.6402 7.20533H42.8623V7.13603H42.6402V7.20533ZM42.8623 7.20533C42.8787 7.20452 42.8949 7.20974 42.9077 7.22003L42.9524 7.16639C42.927 7.14567 42.895 7.13472 42.8623 7.13554V7.20533ZM42.9077 7.22003C42.9182 7.22921 42.9236 7.24268 42.9224 7.25652H42.9918C42.9923 7.23939 42.989 7.22237 42.9819 7.20676C42.9749 7.19114 42.9644 7.17734 42.9512 7.16639L42.9077 7.22003ZM42.9224 7.25652C42.9092 7.34023 42.8674 7.4168 42.8042 7.47325L42.8561 7.52003C42.9313 7.45112 42.9794 7.35769 42.9918 7.25652H42.9224ZM42.8042 7.47374C42.7099 7.57531 42.595 7.6557 42.4673 7.70958L42.4965 7.77301C42.6332 7.71489 42.7561 7.6285 42.857 7.51954L42.8042 7.47374ZM42.4676 7.70921C42.3108 7.77642 42.1413 7.8094 41.9707 7.80594V7.87525C42.1513 7.87868 42.3305 7.84366 42.4965 7.77252L42.4676 7.70921ZM42.6256 6.44615V6.43268H42.5562V6.44615H42.6256ZM42.6256 6.43268C42.6339 6.23956 42.5695 6.05034 42.445 5.90247L42.3926 5.94888C42.5054 6.08414 42.5634 6.25685 42.5549 6.4328L42.6256 6.43268ZM42.4453 5.90492C42.3869 5.83542 42.3132 5.78022 42.2301 5.74356C42.147 5.70691 42.0566 5.68977 41.9658 5.69345V5.76325C42.0464 5.7598 42.1266 5.77485 42.2005 5.80724C42.2743 5.83963 42.3397 5.8885 42.3917 5.95011L42.4453 5.90492ZM41.9658 5.69345C41.8751 5.68986 41.7848 5.70705 41.7018 5.74373C41.6188 5.7804 41.5452 5.83558 41.4868 5.90505L41.5399 5.94962C41.592 5.88804 41.6574 5.83919 41.7312 5.80682C41.805 5.77445 41.8853 5.75942 41.9658 5.76288V5.69345ZM41.4863 5.90505C41.368 6.05483 41.3072 6.24206 41.315 6.4328H41.3848C41.3766 6.25781 41.4316 6.08571 41.5399 5.94803L41.4863 5.90505ZM41.315 6.4328V6.44627H41.3848V6.4328H41.315ZM41.3499 6.48105H42.5903V6.41162H41.3499V6.48105ZM26.4544 18.4291C26.3938 18.4277 26.336 18.403 26.2932 18.3601C26.2503 18.3173 26.2256 18.2595 26.2242 18.1989C26.2221 18.1564 26.226 18.1138 26.2355 18.0723L29.0881 10.6311C29.1117 10.5535 29.1609 10.4862 29.2277 10.4402C29.2946 10.3943 29.375 10.3724 29.4559 10.3782H30.2379C30.3189 10.3724 30.3994 10.3943 30.4663 10.4403C30.5332 10.4862 30.5825 10.5535 30.6061 10.6312L33.4482 18.0723L33.4712 18.1989C33.4695 18.2595 33.4448 18.3171 33.4019 18.3599C33.3591 18.4027 33.3015 18.4275 33.241 18.4291H32.6544C32.5844 18.4335 32.5151 18.4131 32.4586 18.3716C32.4179 18.3331 32.3864 18.2859 32.3668 18.2335L31.7344 16.6001H27.9618L27.3294 18.2335C27.3079 18.288 27.2721 18.3356 27.2258 18.3715C27.1733 18.4119 27.1081 18.4323 27.0419 18.4291H26.4544ZM31.3998 15.6116L29.8473 11.5288L28.2951 15.611L31.3998 15.6116ZM34.7225 11.3332C34.6868 11.337 34.6507 11.3329 34.6169 11.3209C34.583 11.309 34.5523 11.2897 34.5269 11.2643C34.5015 11.239 34.4821 11.2082 34.4702 11.1744C34.4582 11.1406 34.454 11.1045 34.4577 11.0688V10.4477C34.4559 10.3762 34.4805 10.3065 34.5268 10.252C34.5521 10.2258 34.5825 10.205 34.6162 10.191C34.6499 10.1771 34.686 10.1702 34.7225 10.1708H35.4471C35.4834 10.1706 35.5194 10.1777 35.553 10.1915C35.5865 10.2053 35.617 10.2256 35.6427 10.2513C35.6684 10.2769 35.6887 10.3074 35.7025 10.341C35.7164 10.3745 35.7234 10.4105 35.7233 10.4468V11.068C35.7245 11.1415 35.695 11.2122 35.6421 11.2633C35.5877 11.3097 35.5182 11.3343 35.4468 11.3324L34.7225 11.3332ZM34.8147 18.4295C34.779 18.4333 34.7429 18.429 34.7091 18.4171C34.6753 18.4051 34.6446 18.3857 34.6192 18.3604C34.5938 18.335 34.5744 18.3043 34.5624 18.2705C34.5505 18.2366 34.5462 18.2006 34.5499 18.1649V12.7131C34.5466 12.6449 34.5716 12.5784 34.619 12.5292C34.6444 12.503 34.6748 12.4823 34.7084 12.4683C34.7421 12.4544 34.7783 12.4474 34.8147 12.448H35.3664C35.4357 12.4507 35.5014 12.4794 35.5505 12.5284C35.5995 12.5774 35.6283 12.6431 35.6311 12.7124V18.1637C35.6323 18.2373 35.6029 18.3082 35.5499 18.3593C35.5006 18.4066 35.4342 18.4316 35.3659 18.4283L34.8147 18.4295ZM37.6002 18.4295C37.5645 18.4333 37.5284 18.429 37.4947 18.417C37.4609 18.4051 37.4302 18.3857 37.4048 18.3603C37.3795 18.3349 37.3602 18.3042 37.3482 18.2704C37.3363 18.2366 37.3321 18.2005 37.3359 18.1649V12.7245C37.3341 12.6531 37.3586 12.5836 37.4048 12.5292C37.4302 12.5029 37.4606 12.4822 37.4943 12.4682C37.528 12.4542 37.5642 12.4474 37.6006 12.448H38.1284C38.1647 12.4478 38.2007 12.4549 38.2343 12.4687C38.2678 12.4825 38.2983 12.5028 38.324 12.5285C38.3497 12.5542 38.37 12.5847 38.3838 12.6182C38.3976 12.6518 38.4047 12.6878 38.4045 12.7241V13.2299C38.5759 12.965 38.8166 12.752 39.1005 12.6142C39.3843 12.4763 39.7005 12.4189 40.0147 12.448H40.4612C40.5304 12.4507 40.5961 12.4795 40.6451 12.5285C40.6941 12.5775 40.7228 12.6431 40.7255 12.7124V13.1838C40.7268 13.2186 40.7201 13.2532 40.7061 13.285C40.692 13.3168 40.6709 13.3451 40.6444 13.3676C40.62 13.391 40.5911 13.4092 40.5595 13.4211C40.5279 13.4329 40.4942 13.4382 40.4604 13.4366H39.7702C39.5906 13.4269 39.411 13.4547 39.2427 13.518C39.0744 13.5814 38.9211 13.6791 38.7926 13.8048C38.6701 13.9352 38.5753 14.089 38.5139 14.2571C38.4526 14.4251 38.426 14.6039 38.4357 14.7825V18.1637C38.437 18.2373 38.4076 18.3082 38.3546 18.3593C38.3001 18.4056 38.2304 18.4302 38.1589 18.4283L37.6002 18.4295ZM42.5672 18.4295C42.5315 18.4332 42.4955 18.4289 42.4617 18.4169C42.4279 18.4049 42.3972 18.3856 42.3719 18.3602C42.3466 18.3348 42.3272 18.3042 42.3153 18.2704C42.3033 18.2366 42.2991 18.2005 42.3028 18.1649V13.3684H41.3252C41.2895 13.3722 41.2535 13.3679 41.2197 13.356C41.186 13.344 41.1553 13.3247 41.13 13.2993C41.1046 13.274 41.0853 13.2433 41.0733 13.2095C41.0614 13.1757 41.0572 13.1397 41.0609 13.1041V12.7131C41.0576 12.6449 41.0826 12.5784 41.1299 12.5292C41.1551 12.503 41.1855 12.4823 41.2191 12.4683C41.2527 12.4543 41.2888 12.4474 41.3252 12.448H42.3028V11.8728C42.3028 10.5693 42.9622 9.9177 44.2808 9.91794H44.9247C44.994 9.9206 45.0597 9.9493 45.1088 9.9983C45.1579 10.0473 45.1867 10.113 45.1894 10.1823V10.5733C45.19 10.6096 45.183 10.6457 45.1691 10.6793C45.1551 10.7129 45.1344 10.7432 45.1082 10.7685C45.059 10.8157 44.9925 10.8407 44.9243 10.8375H44.3035C44.1695 10.823 44.0339 10.8404 43.9079 10.8884C43.782 10.9364 43.6692 11.0136 43.5788 11.1137C43.4225 11.3559 43.3498 11.6426 43.3719 11.93V12.4477H45.833V10.1829C45.8298 10.1148 45.8547 10.0482 45.9019 9.99901C45.9273 9.97284 45.9577 9.95213 45.9914 9.93817C46.025 9.92421 46.0612 9.91728 46.0976 9.91782H46.6254C46.6947 9.92045 46.7605 9.94913 46.8096 9.99814C46.8587 10.0471 46.8875 10.1129 46.8902 10.1822V18.1637C46.8915 18.2373 46.8621 18.3082 46.8089 18.3593C46.7596 18.4066 46.693 18.4316 46.6246 18.4283H46.0969C46.0612 18.4321 46.0251 18.4279 45.9912 18.416C45.9574 18.404 45.9266 18.3847 45.9012 18.3593C45.8758 18.3339 45.8564 18.3032 45.8445 18.2693C45.8325 18.2355 45.8283 18.1994 45.8322 18.1637V13.3684H43.3709V18.1644C43.3715 18.2008 43.3646 18.237 43.3507 18.2707C43.3367 18.3043 43.316 18.3348 43.2897 18.3601C43.2404 18.4075 43.1738 18.4323 43.1055 18.4291L42.5672 18.4295ZM51.0524 18.5445C50.6933 18.5663 50.3335 18.5142 49.9952 18.3915C49.657 18.2688 49.3475 18.0781 49.0859 17.8311C48.6091 17.3146 48.346 16.6364 48.3497 15.9335L48.3379 15.4389L48.3497 14.9445C48.3476 14.2431 48.6152 13.5678 49.0971 13.0583C50.2215 12.0921 51.8828 12.0921 53.0073 13.0583C53.4891 13.5679 53.7567 14.2432 53.7547 14.9445C53.7623 15.0286 53.7661 15.1935 53.7661 15.4389C53.7661 15.6844 53.7623 15.8493 53.7547 15.9335C53.7581 16.6385 53.4905 17.3178 53.0073 17.8311C52.748 18.0786 52.4403 18.2697 52.1035 18.3924C51.7667 18.5151 51.4082 18.5667 51.0504 18.544L51.0524 18.5445ZM51.0524 17.6589C51.2639 17.6697 51.4753 17.6341 51.6716 17.5546C51.868 17.4752 52.0446 17.3538 52.1892 17.199C52.4968 16.8278 52.6602 16.3581 52.6493 15.8762C52.6568 15.7997 52.6605 15.6541 52.6605 15.4394C52.6605 15.2247 52.6568 15.0791 52.6493 15.0025C52.6601 14.5206 52.4968 14.051 52.1892 13.6798C52.0446 13.525 51.868 13.4036 51.6717 13.3242C51.4753 13.2447 51.264 13.2091 51.0524 13.2198C50.8389 13.2095 50.6257 13.2453 50.4272 13.3246C50.2288 13.404 50.0497 13.5251 49.9022 13.6798C49.596 14.0509 49.4371 14.5217 49.4557 15.0025L49.4443 15.4394L49.4557 15.8762C49.437 16.357 49.596 16.8279 49.9022 17.199C50.0496 17.3533 50.2283 17.4742 50.4264 17.5535C50.6245 17.6328 50.8373 17.6686 51.0504 17.6586L51.0524 17.6589ZM56.6369 18.4304C56.5545 18.4358 56.4729 18.4113 56.4071 18.3613C56.344 18.3007 56.2967 18.2258 56.2691 18.1428L54.6357 12.8065L54.613 12.6917C54.612 12.6597 54.6176 12.6278 54.6295 12.5981C54.6414 12.5684 54.6593 12.5415 54.682 12.519C54.7292 12.4756 54.7906 12.4511 54.8547 12.4501H55.3604C55.3941 12.4485 55.4278 12.4537 55.4594 12.4656C55.4911 12.4775 55.5199 12.4956 55.5443 12.519C55.5915 12.5491 55.6278 12.5936 55.6479 12.6457L56.9248 16.9813L58.2933 12.6917C58.3097 12.6279 58.346 12.5709 58.3969 12.5292C58.4258 12.5015 58.4601 12.48 58.4977 12.466C58.5353 12.452 58.5753 12.4459 58.6153 12.448H59.0063C59.0464 12.4459 59.0865 12.452 59.1241 12.4659C59.1618 12.4799 59.1961 12.5014 59.2251 12.5292C59.2761 12.5708 59.3123 12.6279 59.3286 12.6917L60.6972 16.9813L61.9737 12.6457C61.9881 12.5965 62.0162 12.5527 62.0549 12.519C62.1094 12.4727 62.1791 12.4482 62.2506 12.4501H62.7682C62.8297 12.4493 62.8884 12.4744 62.9307 12.519C62.9765 12.5646 63.0015 12.627 62.9996 12.6917L62.9765 12.8065L61.355 18.1428C61.3274 18.2258 61.28 18.3008 61.2169 18.3613C61.1465 18.4127 61.0601 18.4372 60.9732 18.4304H60.5268C60.4388 18.4394 60.3508 18.4148 60.2803 18.3614C60.2099 18.308 60.1623 18.2299 60.1472 18.1428L58.813 14.0257L57.4789 18.1428C57.458 18.2291 57.4073 18.3053 57.3358 18.3578C57.2643 18.4104 57.1765 18.4361 57.0879 18.4304H56.6369Z" fill="white"/>
</g>
<defs>
<clipPath id="clip0_2014_11408">
<rect width="62.6939" height="24" fill="white" transform="translate(0.305664 0.000183105)"/>
</clipPath>
</defs>
</svg>
