<svg width="188" height="189" viewBox="0 0 188 189" fill="none" xmlns="http://www.w3.org/2000/svg">
<path opacity="0.2" d="M70.5004 128.407L111.625 104.665V131.8L78.9457 150.666C72.3182 154.494 64.6247 156.061 57.0278 155.13C49.4309 154.2 42.3434 150.822 36.836 145.507C31.3287 140.192 27.7008 133.229 26.5006 125.67C25.3004 118.111 26.593 110.366 30.1832 103.607C32.4443 105.926 35.0143 107.923 37.8207 109.541L70.5004 128.407ZM150.18 79.4314L117.5 60.5653L94.0004 74.1366L135.125 97.8789V135.611C135.122 138.839 134.674 142.052 133.796 145.158C141.436 144.879 148.778 142.123 154.715 137.307C160.652 132.491 164.862 125.875 166.711 118.458C168.56 111.04 167.948 103.222 164.966 96.1825C161.984 89.1432 156.795 83.2641 150.18 79.4314ZM76.3754 57.1725L109.055 38.3064C111.855 36.6751 114.868 35.4394 118.007 34.6346C113.946 28.1455 107.884 23.1545 100.736 20.4161C93.5872 17.6777 85.7418 17.3406 78.3849 19.4558C71.0281 21.571 64.5598 26.0236 59.9575 32.1405C55.3553 38.2574 52.8693 45.7062 52.8754 53.3611V91.0933L76.3754 104.665V57.1725Z" fill="#E8E24D"/>
</svg>
