<svg width="145" height="164" viewBox="0 0 145 164" fill="none" xmlns="http://www.w3.org/2000/svg">
<g clip-path="url(#clip0_2014_6948)">
<path opacity="0.8" d="M68.8536 0.485931L0 46.116V46.2019L53.2422 81.4674L68.8536 71.1027V0.485931Z" fill="#B8E558" fill-opacity="0.2"/>
<path opacity="0.8" d="M0 116.862L68.8536 162.448V91.8319L53.2422 81.4673L0 116.733V116.862Z" fill="#B8E558" fill-opacity="0.2"/>
<path opacity="0.8" d="M144.459 47.2352L75.6064 1.60513V72.2219L91.2608 82.5864L144.459 47.3211V47.2352Z" fill="#B8E558" fill-opacity="0.2"/>
<path opacity="0.8" d="M75.6064 163.567L144.459 117.937V117.851L91.2608 82.5852L75.6064 92.9498V163.567Z" fill="#B8E558" fill-opacity="0.2"/>
<path opacity="0.8" d="M0 46.2022V116.733L53.2422 81.4675L0 46.2022Z" fill="#B8E558" fill-opacity="0.4"/>
<path opacity="0.8" d="M144.461 117.851V47.3204L91.2607 82.5859L144.461 117.851Z" fill="#B8E558" fill-opacity="0.4"/>
</g>
<defs>
<clipPath id="clip0_2014_6948">
<rect width="144.461" height="163.081" fill="white" transform="translate(0 0.485931)"/>
</clipPath>
</defs>
</svg>
