<svg width="150" height="178" viewBox="0 0 150 178" fill="none" xmlns="http://www.w3.org/2000/svg">
<g clip-path="url(#clip0_2014_6766)">
<path d="M1.32609 49.7723C2.05828 49.7723 2.65218 49.1787 2.65218 48.4462C2.65218 47.714 2.05828 47.1201 1.32609 47.1201C0.593578 47.1201 0 47.714 0 48.4462C0 49.1787 0.593578 49.7723 1.32609 49.7723Z" fill="#4DC3E8" fill-opacity="0.6"/>
<path d="M30.6894 49.5518C31.4219 49.5518 32.0155 48.9583 32.0155 48.2258C32.0155 47.4932 31.4219 46.8997 30.6894 46.8997C29.9572 46.8997 29.3633 47.4932 29.3633 48.2258C29.3633 48.9583 29.9572 49.5518 30.6894 49.5518Z" fill="#4DC3E8" fill-opacity="0.6"/>
<path d="M16.0077 58.203C16.7402 58.203 17.3338 57.6091 17.3338 56.8769C17.3338 56.1444 16.7402 55.5508 16.0077 55.5508C15.2755 55.5508 14.6816 56.1444 14.6816 56.8769C14.6816 57.6091 15.2755 58.203 16.0077 58.203Z" fill="#4DC3E8" fill-opacity="0.6"/>
<path d="M1.32609 66.8856C2.05828 66.8856 2.65218 66.2917 2.65218 65.5595C2.65218 64.827 2.05828 64.2334 1.32609 64.2334C0.593578 64.2334 0 64.827 0 65.5595C0 66.2917 0.593578 66.8856 1.32609 66.8856Z" fill="#4DC3E8" fill-opacity="0.6"/>
<path d="M74.7352 42.0371C76.2523 42.0371 77.4821 40.807 77.4821 39.2902C77.4821 37.7731 76.2523 36.5433 74.7352 36.5433C73.2184 36.5433 71.9883 37.7731 71.9883 39.2902C71.9883 40.807 73.2184 42.0371 74.7352 42.0371Z" fill="#4DC3E8" fill-opacity="0.6"/>
<path d="M60.0535 50.7199C61.5707 50.7199 62.8004 49.4898 62.8004 47.973C62.8004 46.4559 61.5707 45.2261 60.0535 45.2261C58.5367 45.2261 57.3066 46.4559 57.3066 47.973C57.3066 49.4898 58.5367 50.7199 60.0535 50.7199Z" fill="#4DC3E8" fill-opacity="0.6"/>
<path d="M45.3709 59.4026C46.888 59.4026 48.1178 58.1725 48.1178 56.6557C48.1178 55.1386 46.888 53.9088 45.3709 53.9088C43.8538 53.9088 42.624 55.1386 42.624 56.6557C42.624 58.1725 43.8538 59.4026 45.3709 59.4026Z" fill="#4DC3E8" fill-opacity="0.6"/>
<path d="M30.6903 68.0854C32.2074 68.0854 33.4372 66.8553 33.4372 65.3385C33.4372 63.8214 32.2074 62.5916 30.6903 62.5916C29.1731 62.5916 27.9434 63.8214 27.9434 65.3385C27.9434 66.8553 29.1731 68.0854 30.6903 68.0854Z" fill="#4DC3E8" fill-opacity="0.6"/>
<path d="M16.0086 76.7364C17.5257 76.7364 18.7555 75.5063 18.7555 73.9895C18.7555 72.4724 17.5257 71.2426 16.0086 71.2426C14.4915 71.2426 13.2617 72.4724 13.2617 73.9895C13.2617 75.5063 14.4915 76.7364 16.0086 76.7364Z" fill="#4DC3E8" fill-opacity="0.6"/>
<path d="M1.32609 83.9984C2.05828 83.9984 2.65218 83.4049 2.65218 82.6724C2.65218 81.9398 2.05828 81.3463 1.32609 81.3463C0.593578 81.3463 0 81.9398 0 82.6724C0 83.4049 0.593578 83.9984 1.32609 83.9984Z" fill="#4DC3E8" fill-opacity="0.6"/>
<path d="M74.735 61.8972C77.7689 61.8972 80.2288 59.4376 80.2288 56.4034C80.2288 53.3692 77.7689 50.9096 74.735 50.9096C71.7008 50.9096 69.2412 53.3692 69.2412 56.4034C69.2412 59.4376 71.7008 61.8972 74.735 61.8972Z" fill="#4DC3E8" fill-opacity="0.6"/>
<path d="M60.0544 70.5798C63.0883 70.5798 65.5482 68.1203 65.5482 65.086C65.5482 62.0518 63.0883 59.5922 60.0544 59.5922C57.0201 59.5922 54.5605 62.0518 54.5605 65.086C54.5605 68.1203 57.0201 70.5798 60.0544 70.5798Z" fill="#4DC3E8" fill-opacity="0.6"/>
<path d="M45.3717 79.2626C48.406 79.2626 50.8655 76.803 50.8655 73.7688C50.8655 70.7346 48.406 68.275 45.3717 68.275C42.3378 68.275 39.8779 70.7346 39.8779 73.7688C39.8779 76.803 42.3378 79.2626 45.3717 79.2626Z" fill="#4DC3E8" fill-opacity="0.6"/>
<path d="M30.6891 87.9139C33.723 87.9139 36.1829 85.4543 36.1829 82.4201C36.1829 79.3859 33.723 76.9263 30.6891 76.9263C27.6549 76.9263 25.1953 79.3859 25.1953 82.4201C25.1953 85.4543 27.6549 87.9139 30.6891 87.9139Z" fill="#4DC3E8" fill-opacity="0.6"/>
<path d="M16.0086 93.8492C17.5257 93.8492 18.7555 92.6195 18.7555 91.1024C18.7555 89.5852 17.5257 88.3554 16.0086 88.3554C14.4915 88.3554 13.2617 89.5852 13.2617 91.1024C13.2617 92.6195 14.4915 93.8492 16.0086 93.8492Z" fill="#4DC3E8" fill-opacity="0.6"/>
<path d="M1.32609 101.111C2.05828 101.111 2.65218 100.517 2.65218 99.7849C2.65218 99.0527 2.05828 98.4588 1.32609 98.4588C0.593578 98.4588 0 99.0527 0 99.7849C0 100.517 0.593578 101.111 1.32609 101.111Z" fill="#4DC3E8" fill-opacity="0.6"/>
<path d="M74.735 79.0098C77.7689 79.0098 80.2288 76.5502 80.2288 73.516C80.2288 70.4821 77.7689 68.0222 74.735 68.0222C71.7008 68.0222 69.2412 70.4821 69.2412 73.516C69.2412 76.5502 71.7008 79.0098 74.735 79.0098Z" fill="#4DC3E8" fill-opacity="0.6"/>
<path d="M60.0544 87.6926C63.0883 87.6926 65.5482 85.2331 65.5482 82.1988C65.5482 79.1649 63.0883 76.705 60.0544 76.705C57.0201 76.705 54.5605 79.1649 54.5605 82.1988C54.5605 85.2331 57.0201 87.6926 60.0544 87.6926Z" fill="#4DC3E8" fill-opacity="0.6"/>
<path d="M45.3717 96.3437C48.406 96.3437 50.8655 93.8841 50.8655 90.8499C50.8655 87.816 48.406 85.3561 45.3717 85.3561C42.3378 85.3561 39.8779 87.816 39.8779 90.8499C39.8779 93.8841 42.3378 96.3437 45.3717 96.3437Z" fill="#4DC3E8" fill-opacity="0.6"/>
<path d="M30.6891 105.026C33.723 105.026 36.1829 102.567 36.1829 99.5326C36.1829 96.4987 33.723 94.0388 30.6891 94.0388C27.6549 94.0388 25.1953 96.4987 25.1953 99.5326C25.1953 102.567 27.6549 105.026 30.6891 105.026Z" fill="#4DC3E8" fill-opacity="0.6"/>
<path d="M16.0086 110.962C17.5257 110.962 18.7555 109.732 18.7555 108.215C18.7555 106.698 17.5257 105.468 16.0086 105.468C14.4915 105.468 13.2617 106.698 13.2617 108.215C13.2617 109.732 14.4915 110.962 16.0086 110.962Z" fill="#4DC3E8" fill-opacity="0.6"/>
<path d="M1.32609 118.224C2.05828 118.224 2.65218 117.631 2.65218 116.898C2.65218 116.166 2.05828 115.572 1.32609 115.572C0.593578 115.572 0 116.166 0 116.898C0 117.631 0.593578 118.224 1.32609 118.224Z" fill="#4DC3E8" fill-opacity="0.6"/>
<path d="M74.7352 93.3759C76.2523 93.3759 77.4821 92.1462 77.4821 90.6291C77.4821 89.1119 76.2523 87.8821 74.7352 87.8821C73.2184 87.8821 71.9883 89.1119 71.9883 90.6291C71.9883 92.1462 73.2184 93.3759 74.7352 93.3759Z" fill="#4DC3E8" fill-opacity="0.6"/>
<path d="M60.0535 102.027C61.5707 102.027 62.8004 100.797 62.8004 99.2801C62.8004 97.763 61.5707 96.5332 60.0535 96.5332C58.5367 96.5332 57.3066 97.763 57.3066 99.2801C57.3066 100.797 58.5367 102.027 60.0535 102.027Z" fill="#4DC3E8" fill-opacity="0.6"/>
<path d="M45.3709 110.71C46.888 110.71 48.1178 109.48 48.1178 107.963C48.1178 106.446 46.888 105.216 45.3709 105.216C43.8538 105.216 42.624 106.446 42.624 107.963C42.624 109.48 43.8538 110.71 45.3709 110.71Z" fill="#4DC3E8" fill-opacity="0.6"/>
<path d="M30.6903 119.393C32.2074 119.393 33.4372 118.163 33.4372 116.646C33.4372 115.129 32.2074 113.899 30.6903 113.899C29.1731 113.899 27.9434 115.129 27.9434 116.646C27.9434 118.163 29.1731 119.393 30.6903 119.393Z" fill="#4DC3E8" fill-opacity="0.6"/>
<path d="M16.0077 126.654C16.7402 126.654 17.3338 126.061 17.3338 125.328C17.3338 124.596 16.7402 124.002 16.0077 124.002C15.2755 124.002 14.6816 124.596 14.6816 125.328C14.6816 126.061 15.2755 126.654 16.0077 126.654Z" fill="#4DC3E8" fill-opacity="0.6"/>
<path d="M1.32609 135.337C2.05828 135.337 2.65218 134.743 2.65218 134.011C2.65218 133.279 2.05828 132.685 1.32609 132.685C0.593578 132.685 0 133.279 0 134.011C0 134.743 0.593578 135.337 1.32609 135.337Z" fill="#4DC3E8" fill-opacity="0.6"/>
<path d="M74.7343 109.036C75.4665 109.036 76.0604 108.442 76.0604 107.71C76.0604 106.978 75.4665 106.384 74.7343 106.384C74.0018 106.384 73.4082 106.978 73.4082 107.71C73.4082 108.442 74.0018 109.036 74.7343 109.036Z" fill="#4DC3E8" fill-opacity="0.6"/>
<path d="M60.0536 117.719C60.7861 117.719 61.3797 117.125 61.3797 116.393C61.3797 115.66 60.7861 115.067 60.0536 115.067C59.3214 115.067 58.7275 115.66 58.7275 116.393C58.7275 117.125 59.3214 117.719 60.0536 117.719Z" fill="#4DC3E8" fill-opacity="0.6"/>
<path d="M45.372 126.402C46.1045 126.402 46.6981 125.808 46.6981 125.076C46.6981 124.343 46.1045 123.749 45.372 123.749C44.6395 123.749 44.0459 124.343 44.0459 125.076C44.0459 125.808 44.6395 126.402 45.372 126.402Z" fill="#4DC3E8" fill-opacity="0.6"/>
<path d="M30.6894 135.084C31.4219 135.084 32.0155 134.491 32.0155 133.758C32.0155 133.026 31.4219 132.432 30.6894 132.432C29.9572 132.432 29.3633 133.026 29.3633 133.758C29.3633 134.491 29.9572 135.084 30.6894 135.084Z" fill="#4DC3E8" fill-opacity="0.6"/>
<path d="M16.0077 143.767C16.7402 143.767 17.3338 143.173 17.3338 142.441C17.3338 141.709 16.7402 141.115 16.0077 141.115C15.2755 141.115 14.6816 141.709 14.6816 142.441C14.6816 143.173 15.2755 143.767 16.0077 143.767Z" fill="#4DC3E8" fill-opacity="0.6"/>
<path d="M74.7343 126.149C75.4665 126.149 76.0604 125.556 76.0604 124.823C76.0604 124.091 75.4665 123.497 74.7343 123.497C74.0018 123.497 73.4082 124.091 73.4082 124.823C73.4082 125.556 74.0018 126.149 74.7343 126.149Z" fill="#4DC3E8" fill-opacity="0.6"/>
<path d="M60.0536 134.832C60.7861 134.832 61.3797 134.239 61.3797 133.506C61.3797 132.774 60.7861 132.18 60.0536 132.18C59.3214 132.18 58.7275 132.774 58.7275 133.506C58.7275 134.239 59.3214 134.832 60.0536 134.832Z" fill="#4DC3E8" fill-opacity="0.6"/>
<path d="M45.372 143.515C46.1045 143.515 46.6981 142.921 46.6981 142.189C46.6981 141.456 46.1045 140.863 45.372 140.863C44.6395 140.863 44.0459 141.456 44.0459 142.189C44.0459 142.921 44.6395 143.515 45.372 143.515Z" fill="#4DC3E8" fill-opacity="0.6"/>
<path d="M30.6894 152.198C31.4219 152.198 32.0155 151.604 32.0155 150.872C32.0155 150.139 31.4219 149.545 30.6894 149.545C29.9572 149.545 29.3633 150.139 29.3633 150.872C29.3633 151.604 29.9572 152.198 30.6894 152.198Z" fill="#4DC3E8" fill-opacity="0.6"/>
<path d="M74.7343 143.262C75.4665 143.262 76.0604 142.668 76.0604 141.936C76.0604 141.204 75.4665 140.61 74.7343 140.61C74.0018 140.61 73.4082 141.204 73.4082 141.936C73.4082 142.668 74.0018 143.262 74.7343 143.262Z" fill="#4DC3E8" fill-opacity="0.6"/>
<path d="M60.0536 151.945C60.7861 151.945 61.3797 151.351 61.3797 150.619C61.3797 149.886 60.7861 149.293 60.0536 149.293C59.3214 149.293 58.7275 149.886 58.7275 150.619C58.7275 151.351 59.3214 151.945 60.0536 151.945Z" fill="#4DC3E8" fill-opacity="0.6"/>
<path d="M45.372 160.627C46.1045 160.627 46.6981 160.034 46.6981 159.301C46.6981 158.569 46.1045 157.975 45.372 157.975C44.6395 157.975 44.0459 158.569 44.0459 159.301C44.0459 160.034 44.6395 160.627 45.372 160.627Z" fill="#4DC3E8" fill-opacity="0.6"/>
<path d="M74.7343 160.375C75.4665 160.375 76.0604 159.781 76.0604 159.049C76.0604 158.316 75.4665 157.722 74.7343 157.722C74.0018 157.722 73.4082 158.316 73.4082 159.049C73.4082 159.781 74.0018 160.375 74.7343 160.375Z" fill="#4DC3E8" fill-opacity="0.6"/>
<path d="M60.0536 169.057C60.7861 169.057 61.3797 168.464 61.3797 167.731C61.3797 166.999 60.7861 166.405 60.0536 166.405C59.3214 166.405 58.7275 166.999 58.7275 167.731C58.7275 168.464 59.3214 169.057 60.0536 169.057Z" fill="#4DC3E8" fill-opacity="0.6"/>
<path d="M74.7343 177.488C75.4665 177.488 76.0604 176.895 76.0604 176.162C76.0604 175.43 75.4665 174.836 74.7343 174.836C74.0018 174.836 73.4082 175.43 73.4082 176.162C73.4082 176.895 74.0018 177.488 74.7343 177.488Z" fill="#4DC3E8" fill-opacity="0.6"/>
<path d="M147.954 49.7723C148.687 49.7723 149.28 49.1787 149.28 48.4462C149.28 47.714 148.687 47.1201 147.954 47.1201C147.222 47.1201 146.628 47.714 146.628 48.4462C146.628 49.1787 147.222 49.7723 147.954 49.7723Z" fill="#4DC3E8" fill-opacity="0.6"/>
<path d="M118.56 49.5518C119.292 49.5518 119.886 48.9583 119.886 48.2258C119.886 47.4932 119.292 46.8997 118.56 46.8997C117.827 46.8997 117.233 47.4932 117.233 48.2258C117.233 48.9583 117.827 49.5518 118.56 49.5518Z" fill="#4DC3E8" fill-opacity="0.6"/>
<path d="M133.273 58.203C134.005 58.203 134.598 57.6091 134.598 56.8769C134.598 56.1444 134.005 55.5508 133.273 55.5508C132.54 55.5508 131.946 56.1444 131.946 56.8769C131.946 57.6091 132.54 58.203 133.273 58.203Z" fill="#4DC3E8" fill-opacity="0.6"/>
<path d="M147.954 66.8856C148.687 66.8856 149.28 66.2917 149.28 65.5595C149.28 64.827 148.687 64.2334 147.954 64.2334C147.222 64.2334 146.628 64.827 146.628 65.5595C146.628 66.2917 147.222 66.8856 147.954 66.8856Z" fill="#4DC3E8" fill-opacity="0.6"/>
<path d="M74.5135 42.0371C76.0306 42.0371 77.2604 40.807 77.2604 39.2902C77.2604 37.7731 76.0306 36.5433 74.5135 36.5433C72.9964 36.5433 71.7666 37.7731 71.7666 39.2902C71.7666 40.807 72.9964 42.0371 74.5135 42.0371Z" fill="#4DC3E8" fill-opacity="0.6"/>
<path d="M89.1964 50.7199C90.7132 50.7199 91.943 49.4898 91.943 47.973C91.943 46.4559 90.7132 45.2261 89.1964 45.2261C87.6793 45.2261 86.4492 46.4559 86.4492 47.973C86.4492 49.4898 87.6793 50.7199 89.1964 50.7199Z" fill="#4DC3E8" fill-opacity="0.6"/>
<path d="M103.878 59.4026C105.395 59.4026 106.625 58.1725 106.625 56.6557C106.625 55.1386 105.395 53.9088 103.878 53.9088C102.361 53.9088 101.131 55.1386 101.131 56.6557C101.131 58.1725 102.361 59.4026 103.878 59.4026Z" fill="#4DC3E8" fill-opacity="0.6"/>
<path d="M118.559 68.0854C120.077 68.0854 121.306 66.8553 121.306 65.3385C121.306 63.8214 120.077 62.5916 118.559 62.5916C117.042 62.5916 115.812 63.8214 115.812 65.3385C115.812 66.8553 117.042 68.0854 118.559 68.0854Z" fill="#4DC3E8" fill-opacity="0.6"/>
<path d="M133.272 76.7364C134.789 76.7364 136.019 75.5063 136.019 73.9895C136.019 72.4724 134.789 71.2426 133.272 71.2426C131.755 71.2426 130.525 72.4724 130.525 73.9895C130.525 75.5063 131.755 76.7364 133.272 76.7364Z" fill="#4DC3E8" fill-opacity="0.6"/>
<path d="M147.954 83.9984C148.687 83.9984 149.28 83.4049 149.28 82.6724C149.28 81.9398 148.687 81.3463 147.954 81.3463C147.222 81.3463 146.628 81.9398 146.628 82.6724C146.628 83.4049 147.222 83.9984 147.954 83.9984Z" fill="#4DC3E8" fill-opacity="0.6"/>
<path d="M74.5143 61.8972C77.5485 61.8972 80.0081 59.4376 80.0081 56.4034C80.0081 53.3692 77.5485 50.9096 74.5143 50.9096C71.4801 50.9096 69.0205 53.3692 69.0205 56.4034C69.0205 59.4376 71.4801 61.8972 74.5143 61.8972Z" fill="#4DC3E8" fill-opacity="0.6"/>
<path d="M89.1969 70.5798C92.2311 70.5798 94.6908 68.1203 94.6908 65.086C94.6908 62.0518 92.2311 59.5922 89.1969 59.5922C86.1627 59.5922 83.7031 62.0518 83.7031 65.086C83.7031 68.1203 86.1627 70.5798 89.1969 70.5798Z" fill="#4DC3E8" fill-opacity="0.6"/>
<path d="M103.878 79.2626C106.912 79.2626 109.371 76.803 109.371 73.7688C109.371 70.7346 106.912 68.275 103.878 68.275C100.843 68.275 98.3838 70.7346 98.3838 73.7688C98.3838 76.803 100.843 79.2626 103.878 79.2626Z" fill="#4DC3E8" fill-opacity="0.6"/>
<path d="M118.559 87.9139C121.593 87.9139 124.053 85.4543 124.053 82.4201C124.053 79.3859 121.593 76.9263 118.559 76.9263C115.525 76.9263 113.065 79.3859 113.065 82.4201C113.065 85.4543 115.525 87.9139 118.559 87.9139Z" fill="#4DC3E8" fill-opacity="0.6"/>
<path d="M133.272 93.8492C134.789 93.8492 136.019 92.6195 136.019 91.1024C136.019 89.5852 134.789 88.3554 133.272 88.3554C131.755 88.3554 130.525 89.5852 130.525 91.1024C130.525 92.6195 131.755 93.8492 133.272 93.8492Z" fill="#4DC3E8" fill-opacity="0.6"/>
<path d="M147.954 101.111C148.687 101.111 149.28 100.517 149.28 99.7849C149.28 99.0527 148.687 98.4588 147.954 98.4588C147.222 98.4588 146.628 99.0527 146.628 99.7849C146.628 100.517 147.222 101.111 147.954 101.111Z" fill="#4DC3E8" fill-opacity="0.6"/>
<path d="M74.5143 79.0098C77.5485 79.0098 80.0081 76.5502 80.0081 73.516C80.0081 70.4821 77.5485 68.0222 74.5143 68.0222C71.4801 68.0222 69.0205 70.4821 69.0205 73.516C69.0205 76.5502 71.4801 79.0098 74.5143 79.0098Z" fill="#4DC3E8" fill-opacity="0.6"/>
<path d="M89.1969 87.6926C92.2311 87.6926 94.6908 85.2331 94.6908 82.1988C94.6908 79.1649 92.2311 76.705 89.1969 76.705C86.1627 76.705 83.7031 79.1649 83.7031 82.1988C83.7031 85.2331 86.1627 87.6926 89.1969 87.6926Z" fill="#4DC3E8" fill-opacity="0.6"/>
<path d="M103.878 96.3437C106.912 96.3437 109.371 93.8841 109.371 90.8499C109.371 87.816 106.912 85.3561 103.878 85.3561C100.843 85.3561 98.3838 87.816 98.3838 90.8499C98.3838 93.8841 100.843 96.3437 103.878 96.3437Z" fill="#4DC3E8" fill-opacity="0.6"/>
<path d="M118.559 105.026C121.593 105.026 124.053 102.567 124.053 99.5326C124.053 96.4987 121.593 94.0388 118.559 94.0388C115.525 94.0388 113.065 96.4987 113.065 99.5326C113.065 102.567 115.525 105.026 118.559 105.026Z" fill="#4DC3E8" fill-opacity="0.6"/>
<path d="M133.272 110.962C134.789 110.962 136.019 109.732 136.019 108.215C136.019 106.698 134.789 105.468 133.272 105.468C131.755 105.468 130.525 106.698 130.525 108.215C130.525 109.732 131.755 110.962 133.272 110.962Z" fill="#4DC3E8" fill-opacity="0.6"/>
<path d="M147.954 118.224C148.687 118.224 149.28 117.631 149.28 116.898C149.28 116.166 148.687 115.572 147.954 115.572C147.222 115.572 146.628 116.166 146.628 116.898C146.628 117.631 147.222 118.224 147.954 118.224Z" fill="#4DC3E8" fill-opacity="0.6"/>
<path d="M74.5135 93.3759C76.0306 93.3759 77.2604 92.1462 77.2604 90.6291C77.2604 89.1119 76.0306 87.8821 74.5135 87.8821C72.9964 87.8821 71.7666 89.1119 71.7666 90.6291C71.7666 92.1462 72.9964 93.3759 74.5135 93.3759Z" fill="#4DC3E8" fill-opacity="0.6"/>
<path d="M89.1964 102.027C90.7132 102.027 91.943 100.797 91.943 99.2801C91.943 97.763 90.7132 96.5332 89.1964 96.5332C87.6793 96.5332 86.4492 97.763 86.4492 99.2801C86.4492 100.797 87.6793 102.027 89.1964 102.027Z" fill="#4DC3E8" fill-opacity="0.6"/>
<path d="M103.878 110.71C105.395 110.71 106.625 109.48 106.625 107.963C106.625 106.446 105.395 105.216 103.878 105.216C102.361 105.216 101.131 106.446 101.131 107.963C101.131 109.48 102.361 110.71 103.878 110.71Z" fill="#4DC3E8" fill-opacity="0.6"/>
<path d="M118.559 119.393C120.077 119.393 121.306 118.163 121.306 116.646C121.306 115.129 120.077 113.899 118.559 113.899C117.042 113.899 115.812 115.129 115.812 116.646C115.812 118.163 117.042 119.393 118.559 119.393Z" fill="#4DC3E8" fill-opacity="0.6"/>
<path d="M133.273 126.654C134.005 126.654 134.598 126.061 134.598 125.328C134.598 124.596 134.005 124.002 133.273 124.002C132.54 124.002 131.946 124.596 131.946 125.328C131.946 126.061 132.54 126.654 133.273 126.654Z" fill="#4DC3E8" fill-opacity="0.6"/>
<path d="M147.954 135.337C148.687 135.337 149.28 134.743 149.28 134.011C149.28 133.279 148.687 132.685 147.954 132.685C147.222 132.685 146.628 133.279 146.628 134.011C146.628 134.743 147.222 135.337 147.954 135.337Z" fill="#4DC3E8" fill-opacity="0.6"/>
<path d="M74.5146 109.036C75.2468 109.036 75.8407 108.442 75.8407 107.71C75.8407 106.978 75.2468 106.384 74.5146 106.384C73.7821 106.384 73.1885 106.978 73.1885 107.71C73.1885 108.442 73.7821 109.036 74.5146 109.036Z" fill="#4DC3E8" fill-opacity="0.6"/>
<path d="M89.1952 117.719C89.9277 117.719 90.5213 117.125 90.5213 116.393C90.5213 115.66 89.9277 115.067 89.1952 115.067C88.4627 115.067 87.8691 115.66 87.8691 116.393C87.8691 117.125 88.4627 117.719 89.1952 117.719Z" fill="#4DC3E8" fill-opacity="0.6"/>
<path d="M103.877 126.402C104.609 126.402 105.203 125.808 105.203 125.076C105.203 124.343 104.609 123.749 103.877 123.749C103.144 123.749 102.551 124.343 102.551 125.076C102.551 125.808 103.144 126.402 103.877 126.402Z" fill="#4DC3E8" fill-opacity="0.6"/>
<path d="M118.56 135.084C119.292 135.084 119.886 134.491 119.886 133.758C119.886 133.026 119.292 132.432 118.56 132.432C117.827 132.432 117.233 133.026 117.233 133.758C117.233 134.491 117.827 135.084 118.56 135.084Z" fill="#4DC3E8" fill-opacity="0.6"/>
<path d="M133.273 143.767C134.005 143.767 134.598 143.173 134.598 142.441C134.598 141.709 134.005 141.115 133.273 141.115C132.54 141.115 131.946 141.709 131.946 142.441C131.946 143.173 132.54 143.767 133.273 143.767Z" fill="#4DC3E8" fill-opacity="0.6"/>
<path d="M74.5146 126.149C75.2468 126.149 75.8407 125.556 75.8407 124.823C75.8407 124.091 75.2468 123.497 74.5146 123.497C73.7821 123.497 73.1885 124.091 73.1885 124.823C73.1885 125.556 73.7821 126.149 74.5146 126.149Z" fill="#4DC3E8" fill-opacity="0.6"/>
<path d="M89.1952 134.832C89.9277 134.832 90.5213 134.239 90.5213 133.506C90.5213 132.774 89.9277 132.18 89.1952 132.18C88.4627 132.18 87.8691 132.774 87.8691 133.506C87.8691 134.239 88.4627 134.832 89.1952 134.832Z" fill="#4DC3E8" fill-opacity="0.6"/>
<path d="M103.877 143.515C104.609 143.515 105.203 142.921 105.203 142.189C105.203 141.456 104.609 140.863 103.877 140.863C103.144 140.863 102.551 141.456 102.551 142.189C102.551 142.921 103.144 143.515 103.877 143.515Z" fill="#4DC3E8" fill-opacity="0.6"/>
<path d="M118.56 152.198C119.292 152.198 119.886 151.604 119.886 150.872C119.886 150.139 119.292 149.545 118.56 149.545C117.827 149.545 117.233 150.139 117.233 150.872C117.233 151.604 117.827 152.198 118.56 152.198Z" fill="#4DC3E8" fill-opacity="0.6"/>
<path d="M74.5146 143.262C75.2468 143.262 75.8407 142.668 75.8407 141.936C75.8407 141.204 75.2468 140.61 74.5146 140.61C73.7821 140.61 73.1885 141.204 73.1885 141.936C73.1885 142.668 73.7821 143.262 74.5146 143.262Z" fill="#4DC3E8" fill-opacity="0.6"/>
<path d="M89.1952 151.945C89.9277 151.945 90.5213 151.351 90.5213 150.619C90.5213 149.886 89.9277 149.293 89.1952 149.293C88.4627 149.293 87.8691 149.886 87.8691 150.619C87.8691 151.351 88.4627 151.945 89.1952 151.945Z" fill="#4DC3E8" fill-opacity="0.6"/>
<path d="M103.877 160.627C104.609 160.627 105.203 160.034 105.203 159.301C105.203 158.569 104.609 157.975 103.877 157.975C103.144 157.975 102.551 158.569 102.551 159.301C102.551 160.034 103.144 160.627 103.877 160.627Z" fill="#4DC3E8" fill-opacity="0.6"/>
<path d="M74.5146 160.375C75.2468 160.375 75.8407 159.781 75.8407 159.049C75.8407 158.316 75.2468 157.722 74.5146 157.722C73.7821 157.722 73.1885 158.316 73.1885 159.049C73.1885 159.781 73.7821 160.375 74.5146 160.375Z" fill="#4DC3E8" fill-opacity="0.6"/>
<path d="M89.1952 169.057C89.9277 169.057 90.5213 168.464 90.5213 167.731C90.5213 166.999 89.9277 166.405 89.1952 166.405C88.4627 166.405 87.8691 166.999 87.8691 167.731C87.8691 168.464 88.4627 169.057 89.1952 169.057Z" fill="#4DC3E8" fill-opacity="0.6"/>
<path d="M74.5146 177.488C75.2468 177.488 75.8407 176.895 75.8407 176.162C75.8407 175.43 75.2468 174.836 74.5146 174.836C73.7821 174.836 73.1885 175.43 73.1885 176.162C73.1885 176.895 73.7821 177.488 74.5146 177.488Z" fill="#4DC3E8" fill-opacity="0.6"/>
<path d="M72.9989 3.13799C73.7311 3.13799 74.325 2.5444 74.325 1.81189C74.325 1.0797 73.7311 0.485809 72.9989 0.485809C72.2664 0.485809 71.6729 1.0797 71.6729 1.81189C71.6729 2.5444 72.2664 3.13799 72.9989 3.13799Z" fill="#4DC3E8" fill-opacity="0.6"/>
<path d="M58.3166 11.8208C59.0488 11.8208 59.6424 11.2272 59.6424 10.4947C59.6424 9.76247 59.0488 9.16858 58.3166 9.16858C57.5841 9.16858 56.9902 9.76247 56.9902 10.4947C56.9902 11.2272 57.5841 11.8208 58.3166 11.8208Z" fill="#4DC3E8" fill-opacity="0.6"/>
<path d="M43.6347 20.5034C44.3672 20.5034 44.9608 19.9098 44.9608 19.1773C44.9608 18.4451 44.3672 17.8512 43.6347 17.8512C42.9025 17.8512 42.3086 18.4451 42.3086 19.1773C42.3086 19.9098 42.9025 20.5034 43.6347 20.5034Z" fill="#4DC3E8" fill-opacity="0.6"/>
<path d="M28.953 29.1863C29.6852 29.1863 30.2791 28.5927 30.2791 27.8602C30.2791 27.128 29.6852 26.5341 28.953 26.5341C28.2205 26.5341 27.627 27.128 27.627 27.8602C27.627 28.5927 28.2205 29.1863 28.953 29.1863Z" fill="#4DC3E8" fill-opacity="0.6"/>
<path d="M14.2714 37.869C15.0036 37.869 15.5975 37.2754 15.5975 36.5429C15.5975 35.8107 15.0036 35.2168 14.2714 35.2168C13.5389 35.2168 12.9453 35.8107 12.9453 36.5429C12.9453 37.2754 13.5389 37.869 14.2714 37.869Z" fill="#4DC3E8" fill-opacity="0.6"/>
<path d="M72.9989 20.2513C73.7311 20.2513 74.325 19.6574 74.325 18.9252C74.325 18.1927 73.7311 17.5992 72.9989 17.5992C72.2664 17.5992 71.6729 18.1927 71.6729 18.9252C71.6729 19.6574 72.2664 20.2513 72.9989 20.2513Z" fill="#4DC3E8" fill-opacity="0.6"/>
<path d="M58.3166 28.9341C59.0488 28.9341 59.6424 28.3402 59.6424 27.608C59.6424 26.8755 59.0488 26.2819 58.3166 26.2819C57.5841 26.2819 56.9902 26.8755 56.9902 27.608C56.9902 28.3402 57.5841 28.9341 58.3166 28.9341Z" fill="#4DC3E8" fill-opacity="0.6"/>
<path d="M43.6347 37.617C44.3672 37.617 44.9608 37.0231 44.9608 36.2909C44.9608 35.5584 44.3672 34.9648 43.6347 34.9648C42.9025 34.9648 42.3086 35.5584 42.3086 36.2909C42.3086 37.0231 42.9025 37.617 43.6347 37.617Z" fill="#4DC3E8" fill-opacity="0.6"/>
<path d="M72.7773 3.13799C73.5098 3.13799 74.1034 2.5444 74.1034 1.81189C74.1034 1.0797 73.5098 0.485809 72.7773 0.485809C72.0451 0.485809 71.4512 1.0797 71.4512 1.81189C71.4512 2.5444 72.0451 3.13799 72.7773 3.13799Z" fill="#4DC3E8" fill-opacity="0.6"/>
<path d="M87.4589 11.8208C88.1914 11.8208 88.785 11.2272 88.785 10.4947C88.785 9.76247 88.1914 9.16858 87.4589 9.16858C86.7267 9.16858 86.1328 9.76247 86.1328 10.4947C86.1328 11.2272 86.7267 11.8208 87.4589 11.8208Z" fill="#4DC3E8" fill-opacity="0.6"/>
<path d="M102.142 20.5034C102.874 20.5034 103.468 19.9098 103.468 19.1773C103.468 18.4451 102.874 17.8512 102.142 17.8512C101.409 17.8512 100.815 18.4451 100.815 19.1773C100.815 19.9098 101.409 20.5034 102.142 20.5034Z" fill="#4DC3E8" fill-opacity="0.6"/>
<path d="M116.822 29.1863C117.555 29.1863 118.148 28.5927 118.148 27.8602C118.148 27.128 117.555 26.5341 116.822 26.5341C116.09 26.5341 115.496 27.128 115.496 27.8602C115.496 28.5927 116.09 29.1863 116.822 29.1863Z" fill="#4DC3E8" fill-opacity="0.6"/>
<path d="M131.536 37.869C132.269 37.869 132.862 37.2754 132.862 36.5429C132.862 35.8107 132.269 35.2168 131.536 35.2168C130.804 35.2168 130.21 35.8107 130.21 36.5429C130.21 37.2754 130.804 37.869 131.536 37.869Z" fill="#4DC3E8" fill-opacity="0.6"/>
<path d="M72.7773 20.2513C73.5098 20.2513 74.1034 19.6574 74.1034 18.9252C74.1034 18.1927 73.5098 17.5992 72.7773 17.5992C72.0451 17.5992 71.4512 18.1927 71.4512 18.9252C71.4512 19.6574 72.0451 20.2513 72.7773 20.2513Z" fill="#4DC3E8" fill-opacity="0.6"/>
<path d="M87.4589 28.9341C88.1914 28.9341 88.785 28.3402 88.785 27.608C88.785 26.8755 88.1914 26.2819 87.4589 26.2819C86.7267 26.2819 86.1328 26.8755 86.1328 27.608C86.1328 28.3402 86.7267 28.9341 87.4589 28.9341Z" fill="#4DC3E8" fill-opacity="0.6"/>
<path d="M102.142 37.617C102.874 37.617 103.468 37.0231 103.468 36.2909C103.468 35.5584 102.874 34.9648 102.142 34.9648C101.409 34.9648 100.815 35.5584 100.815 36.2909C100.815 37.0231 101.409 37.617 102.142 37.617Z" fill="#4DC3E8" fill-opacity="0.6"/>
</g>
<defs>
<clipPath id="clip0_2014_6766">
<rect width="149.28" height="177.002" fill="white" transform="translate(0 0.485809)"/>
</clipPath>
</defs>
</svg>
