<svg width="153" height="150" viewBox="0 0 153 150" fill="none" xmlns="http://www.w3.org/2000/svg">
<g clip-path="url(#clip0_2014_6882)">
<path opacity="0.95" d="M26.8223 123.485V149.486L49.3196 136.474V110.495L26.8223 123.485Z" fill="#E84D4D" fill-opacity="0.6"/>
<path opacity="0.5" d="M23.2063 123.485V149.486L0.708984 136.474V110.495L23.2063 123.485Z" fill="#E84D4D" fill-opacity="0.6"/>
<path opacity="0.3" d="M26.8223 95.4076V119.311L47.5341 107.348L26.8223 95.4076Z" fill="#E84D4D" fill-opacity="0.6"/>
<path opacity="0.75" d="M23.2059 95.4076L2.49414 107.348L23.2059 119.311V95.4076Z" fill="#E84D4D" fill-opacity="0.6"/>
<path opacity="0.95" d="M23.2063 89.0244V63.023L0.708984 76.0349V102.014L23.2063 89.0244Z" fill="#E84D4D" fill-opacity="0.6"/>
<path opacity="0.95" d="M26.8223 28.563V54.5644L49.3196 41.5526V15.5735L26.8223 28.563Z" fill="#E84D4D" fill-opacity="0.6"/>
<path opacity="0.5" d="M23.2063 28.563V54.5644L0.708984 41.5526V15.5735L23.2063 28.563Z" fill="#E84D4D" fill-opacity="0.6"/>
<path opacity="0.3" d="M26.8223 0.485931V24.3893L47.5341 12.4265L26.8223 0.485931Z" fill="#E84D4D" fill-opacity="0.6"/>
<path opacity="0.75" d="M23.2059 0.485931L2.49414 12.4265L23.2059 24.3893V0.485931Z" fill="#E84D4D" fill-opacity="0.6"/>
<path opacity="0.75" d="M2.49414 46.7303V70.656L23.2059 58.6931L2.49414 46.7303Z" fill="#E84D4D" fill-opacity="0.6"/>
<path opacity="0.15" d="M47.5341 46.7303L26.8223 58.6931L47.5341 70.656V46.7303Z" fill="#E84D4D" fill-opacity="0.6"/>
<path opacity="0.5" d="M26.8223 89.0244V63.023L49.3196 76.0349V102.014L26.8223 89.0244Z" fill="#E84D4D" fill-opacity="0.6"/>
<path opacity="0.95" d="M79.2715 123.485V149.486L101.769 136.474V110.495L79.2715 123.485Z" fill="#E84D4D" fill-opacity="0.6"/>
<path opacity="0.5" d="M75.6555 123.485V149.486L53.1582 136.474V110.495L75.6555 123.485Z" fill="#E84D4D" fill-opacity="0.6"/>
<path opacity="0.3" d="M79.2715 95.4076V119.311L99.9833 107.348L79.2715 95.4076Z" fill="#E84D4D" fill-opacity="0.6"/>
<path opacity="0.75" d="M75.6552 95.4076L54.9434 107.348L75.6552 119.311V95.4076Z" fill="#E84D4D" fill-opacity="0.6"/>
<path opacity="0.95" d="M75.6555 89.0244V63.023L53.1582 76.0349V102.014L75.6555 89.0244Z" fill="#E84D4D" fill-opacity="0.6"/>
<path opacity="0.95" d="M79.2715 28.563V54.5644L101.769 41.5526V15.5735L79.2715 28.563Z" fill="#E84D4D" fill-opacity="0.6"/>
<path opacity="0.5" d="M75.6555 28.563V54.5644L53.1582 41.5526V15.5735L75.6555 28.563Z" fill="#E84D4D" fill-opacity="0.6"/>
<path opacity="0.3" d="M79.2715 0.485931V24.3893L99.9833 12.4265L79.2715 0.485931Z" fill="#E84D4D" fill-opacity="0.6"/>
<path opacity="0.75" d="M75.6552 0.485931L54.9434 12.4265L75.6552 24.3893V0.485931Z" fill="#E84D4D" fill-opacity="0.6"/>
<path opacity="0.75" d="M54.9434 46.7303V70.656L75.6552 58.6931L54.9434 46.7303Z" fill="#E84D4D" fill-opacity="0.6"/>
<path opacity="0.15" d="M99.9833 46.7303L79.2715 58.6931L99.9833 70.656V46.7303Z" fill="#E84D4D" fill-opacity="0.6"/>
<path opacity="0.5" d="M79.2715 89.0244V63.023L101.769 76.0349V102.014L79.2715 89.0244Z" fill="#E84D4D" fill-opacity="0.6"/>
<path opacity="0.95" d="M130.961 123.485V149.486L153.48 136.474V110.495L130.961 123.485Z" fill="#E84D4D" fill-opacity="0.6"/>
<path opacity="0.5" d="M127.367 123.485V149.486L104.848 136.474V110.495L127.367 123.485Z" fill="#E84D4D" fill-opacity="0.6"/>
<path opacity="0.3" d="M130.961 95.4076V119.311L151.673 107.348L130.961 95.4076Z" fill="#E84D4D" fill-opacity="0.6"/>
<path opacity="0.75" d="M127.368 95.4076L106.656 107.348L127.368 119.311V95.4076Z" fill="#E84D4D" fill-opacity="0.6"/>
<path opacity="0.95" d="M127.367 89.0244V63.023L104.848 76.0349V102.014L127.367 89.0244Z" fill="#E84D4D" fill-opacity="0.6"/>
<path opacity="0.95" d="M130.961 28.563V54.5644L153.48 41.5526V15.5735L130.961 28.563Z" fill="#E84D4D" fill-opacity="0.6"/>
<path opacity="0.5" d="M127.367 28.563V54.5644L104.848 41.5526V15.5735L127.367 28.563Z" fill="#E84D4D" fill-opacity="0.6"/>
<path opacity="0.3" d="M130.961 0.485931V24.3893L151.673 12.4265L130.961 0.485931Z" fill="#E84D4D" fill-opacity="0.6"/>
<path opacity="0.75" d="M127.368 0.485931L106.656 12.4265L127.368 24.3893V0.485931Z" fill="#E84D4D" fill-opacity="0.6"/>
<path opacity="0.75" d="M106.656 46.7303V70.656L127.368 58.6931L106.656 46.7303Z" fill="#E84D4D" fill-opacity="0.6"/>
<path opacity="0.15" d="M151.673 46.7303L130.961 58.6931L151.673 70.656V46.7303Z" fill="#E84D4D" fill-opacity="0.6"/>
<path opacity="0.5" d="M130.961 89.0244V63.023L153.48 76.0349V102.014L130.961 89.0244Z" fill="#E84D4D" fill-opacity="0.6"/>
</g>
<defs>
<clipPath id="clip0_2014_6882">
<rect width="152.771" height="149" fill="white" transform="translate(0.708984 0.485931)"/>
</clipPath>
</defs>
</svg>
